<svg width="100" height="50" viewBox="0 0 100 50" fill="none" xmlns="http://www.w3.org/2000/svg">
<path d="M43.0121 31.8254V19.2961H45.7071V24.2606H51.3807V19.2961H54.0757V31.8254H51.3807V26.6246H45.7071V31.8254H43.0121Z" fill="black"/>
<path d="M60.1277 32.1093C59.3239 32.1251 58.5359 31.9044 57.8425 31.4947C57.1806 31.0849 56.6447 30.486 56.298 29.7926C55.9198 29.0203 55.7306 28.1535 55.7464 27.2867C55.7306 26.4199 55.9198 25.5531 56.298 24.7809C57.0072 23.3152 58.5044 22.4011 60.1277 22.4326C60.6793 22.4326 61.2152 22.5272 61.7195 22.7478C62.208 22.9527 62.6493 23.2521 63.0118 23.6461V22.7163H65.6437V31.8256H63.0118V30.9116C62.6493 31.2898 62.208 31.5892 61.7195 31.7941C61.2152 32.0148 60.6793 32.1251 60.1277 32.1093ZM60.7108 29.8399C61.1364 29.8556 61.5619 29.7453 61.9244 29.5247C62.2711 29.3198 62.5548 29.0046 62.7281 28.6421C62.9172 28.2166 63.0276 27.7595 63.0118 27.3025C63.0433 26.6248 62.8227 25.9629 62.3814 25.4428C61.9559 24.97 61.3412 24.7178 60.7108 24.7336C60.0804 24.7021 59.4815 24.97 59.056 25.4428C58.6147 25.9629 58.3941 26.6248 58.4256 27.3025C58.4099 27.7595 58.5202 28.2323 58.7093 28.6421C58.8827 29.0046 59.1663 29.3198 59.5131 29.5247C59.8755 29.7295 60.3011 29.8399 60.7108 29.8399Z" fill="black"/>
<path d="M70.4188 22.7161H67.7869V31.8255H70.4188V22.7161Z" fill="black"/>
<path d="M75.1943 22.7161H72.5623V31.8255H75.1943V22.7161Z" fill="black"/>
<path d="M79.8751 31.9361C78.173 31.9361 77.3377 31.022 77.3377 29.1938V18.9182H79.9381V28.721C79.9224 28.9732 79.9696 29.2411 80.0957 29.4617C80.206 29.6351 80.3952 29.7297 80.6 29.7139C80.7419 29.7139 80.868 29.6981 81.0098 29.6666V31.747C80.6316 31.873 80.2533 31.9361 79.8751 31.9361Z" fill="black"/>
<path d="M86.9512 32.1094C86.0528 32.1251 85.1703 31.9202 84.3823 31.4947C83.6415 31.1007 83.0427 30.5176 82.6329 29.7926C82.2074 29.0361 81.9867 28.1693 82.0025 27.2868C81.9867 26.4042 82.2074 25.5374 82.6171 24.7809C83.0269 24.056 83.6416 23.4571 84.3665 23.0473C85.1545 22.6218 86.0528 22.4011 86.9512 22.4169C87.8337 22.4011 88.7163 22.606 89.5043 23.0315C90.2293 23.4255 90.8282 24.0244 91.2379 24.7494C91.6634 25.5216 91.8683 26.3884 91.8683 27.2553C91.8841 28.1378 91.6634 29.0046 91.2379 29.7611C90.8282 30.4861 90.2293 31.085 89.4886 31.479C88.7321 31.9202 87.8495 32.1251 86.9512 32.1094ZM86.9512 29.903C87.3609 29.9187 87.7865 29.8084 88.1332 29.5878C88.4799 29.3671 88.7478 29.0519 88.9212 28.6737C89.1103 28.2324 89.2049 27.7596 89.2049 27.271C89.2206 26.7982 89.1261 26.3254 88.9212 25.8841C88.7478 25.5059 88.4799 25.1907 88.1332 24.9543C87.7865 24.7336 87.3609 24.6233 86.9512 24.6233C86.5257 24.6076 86.1159 24.7336 85.7534 24.9543C85.4067 25.1749 85.123 25.5059 84.9654 25.8841C84.7763 26.3254 84.6817 26.7825 84.6817 27.271C84.666 27.7438 84.7605 28.2324 84.9654 28.6737C85.1388 29.0519 85.4067 29.3671 85.7534 29.5878C86.1159 29.8084 86.5414 29.9187 86.9512 29.903Z" fill="black"/>
<path fill-rule="evenodd" clip-rule="evenodd" d="M72.7356 21.1874C73.035 21.4869 73.4448 21.6602 73.8703 21.6602C74.3116 21.676 74.7214 21.5026 75.0366 21.2032C75.336 20.9038 75.5094 20.494 75.5094 20.0685C75.5094 19.1701 74.7686 18.4294 73.8703 18.4294C73.4448 18.4137 73.035 18.587 72.7356 18.9022C72.4204 19.2017 72.2628 19.6114 72.2628 20.0527C72.2628 20.4782 72.4361 20.888 72.7356 21.1874ZM67.9762 21.1876C68.2756 21.487 68.6854 21.6604 69.1109 21.6604C69.5364 21.6761 69.9619 21.5028 70.2771 21.2033C70.5766 20.9039 70.7499 20.4941 70.7499 20.0686C70.7499 19.1703 70.0092 18.4296 69.1109 18.4296C68.6854 18.4138 68.2756 18.5872 67.9762 18.9024C67.661 19.2018 67.5034 19.6116 67.5034 20.0528C67.5034 20.4784 67.6767 20.8881 67.9762 21.1876Z" fill="black"/>
<path opacity="0.24" fill-rule="evenodd" clip-rule="evenodd" d="M25.9438 14.1586C24.7933 13.6228 23.3276 13.8592 22.445 14.8836C21.1054 16.4281 21.6728 18.9024 23.6901 19.6116C24.2817 19.8178 24.8172 19.7996 25.3836 19.7804C25.8131 19.7659 26.2604 19.7507 26.7633 19.8323C29.0643 20.1948 31.0501 21.3925 32.3739 23.5989C32.6733 24.1033 32.9097 24.6549 33.0831 25.2222V25.238L33.0989 25.2853V25.2538C32.9728 19.8008 29.5686 15.845 25.9438 14.1586ZM8.05604 26.641C8.18212 27.9175 9.14349 29.0365 10.4673 29.2729C12.4846 29.6354 14.3128 27.886 13.8873 25.7899C13.7607 25.1751 13.4681 24.7211 13.1583 24.2403C12.9282 23.8832 12.6885 23.5112 12.5004 23.0477C11.6493 20.8885 11.6493 18.556 12.8786 16.3023C13.1623 15.7822 13.509 15.3094 13.9188 14.8682L13.9346 14.8524L13.9661 14.8209L13.9346 14.8366C9.31685 17.7207 7.66204 22.6694 8.05604 26.641ZM19.1353 37.9245C15.2583 37.4832 12.8312 35.5132 11.8698 34.5361C12.9415 35.0404 14.423 35.5289 16.5033 35.198C19.4662 34.7409 22.571 32.0932 22.8389 28.4684C22.9492 26.8924 23.422 25.8995 24.4149 24.8593C25.4551 23.7877 28.0082 22.779 30.2461 24.2447C32.4841 25.7104 32.6102 27.8538 32.5314 28.6891C32.358 30.7063 30.845 32.96 29.2375 34.5203C26.3534 37.3414 22.303 38.287 19.1353 37.9245Z" fill="black"/>
<path fill-rule="evenodd" clip-rule="evenodd" d="M23.8634 15.6875C23.1384 14.2218 21.8618 13.3234 20.3646 13.0713C18.8832 12.8191 17.3229 13.2762 15.9676 13.812C13.2253 14.8995 10.9401 16.9483 9.53743 19.5329C8.19782 21.9915 7.96141 24.4501 8.05597 25.9631C8.4815 25.1593 8.98582 24.4974 9.55319 23.93C10.1048 23.3942 10.7194 22.9371 11.3971 22.5904C12.7525 21.8812 14.1551 21.6605 15.6839 21.7709C16.3772 21.8171 17.0164 22.0206 17.6299 22.2159C18.0623 22.3536 18.482 22.4872 18.8989 22.5589C19.9076 22.7165 20.8532 22.5274 21.7673 22.0703C24.1313 20.8253 24.9666 18.0042 23.8634 15.6875ZM26.9052 14.6632L26.8736 14.6474L26.9052 14.679L26.9209 14.6947C27.3307 15.1202 27.6932 15.593 27.9926 16.0974C29.2692 18.3353 29.348 20.652 28.5442 22.8427C28.3698 23.3123 28.1411 23.6905 27.9214 24.0539C27.6249 24.5443 27.3447 25.0077 27.2361 25.6322C26.8736 27.7441 28.7491 29.4304 30.7506 29.0207C32.0745 28.7527 32.9886 27.5865 33.0831 26.3257C33.3826 22.3384 31.6017 17.4212 26.9052 14.6632ZM19.1827 28.9888C20.4592 32.4088 24.1629 34.0793 27.1415 33.7011C29.2376 33.4332 30.53 32.5664 31.4125 31.7784C30.7506 32.9919 28.9697 35.545 25.3764 37.058C22.445 38.2873 18.2843 38.4922 14.7226 36.5852C12.7525 35.5293 10.6565 33.7799 9.93149 31.8887C9.63204 31.1007 9.15924 29.0203 10.8929 26.9873C12.6265 24.9385 15.3687 25.2064 16.6611 25.9629C17.9061 26.6721 18.6311 27.5074 19.1827 28.9888Z" fill="black"/>
</svg>
