<svg viewBox="0 0 24 24" xmlns="http://www.w3.org/2000/svg"><path fill-rule="evenodd" clip-rule="evenodd" d="M4.978 8.96a7.029 7.029 0 0 1 14.044 0l.124 2.733a6.949 6.949 0 0 0 1.287 3.723l.05.07c.826 1.157-.001 2.764-1.423 2.764H4.94c-1.422 0-2.25-1.607-1.423-2.765l.05-.07a6.948 6.948 0 0 0 1.287-3.722l.124-2.733ZM12 3.75a5.529 5.529 0 0 0-5.523 5.278l-.124 2.733a8.449 8.449 0 0 1-1.565 4.527l-.05.07a.248.248 0 0 0 .202.392h14.12c.202 0 .32-.228.202-.393l-.05-.07a8.45 8.45 0 0 1-1.565-4.526l-.124-2.733A5.529 5.529 0 0 0 12 3.75Z"/><path d="M4.731 5.098a.75.75 0 1 0-1.321-.71 9.75 9.75 0 0 0-1.153 4.984.75.75 0 1 0 1.499-.057 8.25 8.25 0 0 1 .975-4.217Zm14.538 0a.75.75 0 0 1 1.321-.71 9.75 9.75 0 0 1 1.153 4.984.75.75 0 1 1-1.499-.057 8.25 8.25 0 0 0-.975-4.217ZM10.323 19.5a.75.75 0 0 0-1.118 1A3.742 3.742 0 0 0 12 21.75c1.11 0 2.11-.484 2.795-1.25a.75.75 0 0 0-1.118-1 2.243 2.243 0 0 1-1.677.75 2.243 2.243 0 0 1-1.677-.75Z"/></svg>