<svg viewBox="0 0 24 24" xmlns="http://www.w3.org/2000/svg"><path fill-rule="evenodd" clip-rule="evenodd" d="M12 2.25a7.029 7.029 0 0 0-7.022 6.71l-.124 2.733a6.948 6.948 0 0 1-1.287 3.723l-.05.07c-.826 1.157.001 2.764 1.423 2.764h14.12c1.422 0 2.25-1.607 1.423-2.765l-.05-.07a6.949 6.949 0 0 1-1.287-3.722l-.124-2.733A7.029 7.029 0 0 0 12 2.25ZM6.477 9.028a5.529 5.529 0 0 1 11.046 0l.124 2.733a8.449 8.449 0 0 0 1.565 4.527l.05.07a.248.248 0 0 1-.202.392H4.94a.248.248 0 0 1-.202-.393l.05-.07a8.448 8.448 0 0 0 1.565-4.526l.124-2.733Z"/><path d="M10.323 19.5a.75.75 0 0 0-1.118 1A3.742 3.742 0 0 0 12 21.75c1.11 0 2.11-.484 2.795-1.25a.75.75 0 0 0-1.118-1 2.243 2.243 0 0 1-1.677.75 2.243 2.243 0 0 1-1.677-.75Z"/></svg>