<svg viewBox="0 0 24 24" xmlns="http://www.w3.org/2000/svg"><path d="M4.978 8.96a7.029 7.029 0 0 1 9.077-6.404.75.75 0 1 1-.438 1.434 5.529 5.529 0 0 0-7.14 5.038l-.124 2.733a8.58 8.58 0 0 1-1.615 4.596.248.248 0 0 0 .202.393h14.12c.202 0 .32-.228.202-.393a.75.75 0 0 1 1.22-.872c.827 1.158 0 2.765-1.422 2.765H4.94c-1.422 0-2.25-1.607-1.423-2.765a7.08 7.08 0 0 0 1.337-3.792l.124-2.733Z"/><path d="M18.438 6.391a.75.75 0 0 1 .17 1.047l-3.6 5a.75.75 0 0 1-1.088.138l-2.4-2a.75.75 0 0 1 .96-1.152l1.782 1.485 3.13-4.347a.75.75 0 0 1 1.046-.17ZM10.323 19.5a.75.75 0 0 0-1.118 1A3.742 3.742 0 0 0 12 21.75c1.11 0 2.11-.484 2.795-1.25a.75.75 0 0 0-1.118-1 2.243 2.243 0 0 1-1.677.75 2.243 2.243 0 0 1-1.677-.75Z"/></svg>