<svg viewBox="0 0 24 24" xmlns="http://www.w3.org/2000/svg"><path d="M7.3 3.905A6.725 6.725 0 0 1 12 2c1.756 0 3.447.681 4.7 1.905a6.493 6.493 0 0 1 1.965 4.645c0 3.63.882 5.751 1.61 6.89.341.532.239 1.179.056 1.595-.18.409-.608.965-1.304.965H4.973c-.695 0-1.124-.556-1.304-.965-.183-.416-.285-1.063.055-1.595.729-1.139 1.611-3.26 1.611-6.89 0-1.75.712-3.42 1.965-4.645ZM4.731 5.098a.75.75 0 1 0-1.321-.71 9.75 9.75 0 0 0-1.153 4.984.75.75 0 0 0 1.499-.057 8.25 8.25 0 0 1 .975-4.217Zm14.538 0a.75.75 0 0 1 1.321-.71 9.75 9.75 0 0 1 1.153 4.984.75.75 0 0 1-1.499-.057 8.25 8.25 0 0 0-.975-4.217ZM10.662 19.5a.75.75 0 0 0-1.289.766c.27.453.655.827 1.116 1.086a3.086 3.086 0 0 0 3.022 0 3.02 3.02 0 0 0 1.116-1.086.75.75 0 0 0-1.29-.767 1.514 1.514 0 0 1-.56.545 1.587 1.587 0 0 1-1.553 0 1.514 1.514 0 0 1-.562-.545Z"/></svg>