<svg viewBox="0 0 24 24" xmlns="http://www.w3.org/2000/svg"><path fill-rule="evenodd" clip-rule="evenodd" d="M12 2.25a7.029 7.029 0 0 0-7.022 6.71l-.124 2.733a6.948 6.948 0 0 1-1.287 3.723l-.05.07c-.826 1.157.001 2.764 1.423 2.764h14.12c1.422 0 2.25-1.607 1.423-2.765l-.05-.07a6.949 6.949 0 0 1-1.287-3.722l-.082-1.803a4.25 4.25 0 0 0-4.519-7.164A7.011 7.011 0 0 0 12 2.25Zm1.16 1.622a5.529 5.529 0 0 0-6.683 5.156l-.124 2.733a8.448 8.448 0 0 1-1.565 4.527l-.05.07a.248.248 0 0 0 .202.392h14.12c.202 0 .32-.228.202-.393l-.05-.07a8.449 8.449 0 0 1-1.565-4.526l-.052-1.153A4.255 4.255 0 0 1 12.25 6.5c0-.992.34-1.905.91-2.628Zm.59 2.628a2.75 2.75 0 1 1 5.5 0 2.75 2.75 0 0 1-5.5 0Z"/><path d="M9.264 19.441a.75.75 0 0 1 1.059.059c.413.461 1.01.75 1.677.75.666 0 1.264-.289 1.677-.75a.75.75 0 0 1 1.118 1A3.743 3.743 0 0 1 12 21.75c-1.11 0-2.11-.484-2.795-1.25a.75.75 0 0 1 .059-1.059Z"/></svg>