<svg viewBox="0 0 24 24" xmlns="http://www.w3.org/2000/svg"><path d="M12 2a6.725 6.725 0 0 0-4.7 1.905A6.493 6.493 0 0 0 5.335 8.55c0 3.63-.882 5.751-1.61 6.89-.341.532-.239 1.179-.056 1.595.18.409.609.965 1.304.965h14.054c.695 0 1.124-.556 1.304-.965.183-.416.285-1.063-.055-1.595-.729-1.139-1.611-3.26-1.611-6.89 0-1.75-.712-3.42-1.965-4.645A6.725 6.725 0 0 0 12 2Zm-1.338 17.5a.75.75 0 0 0-1.289.766c.27.453.655.827 1.116 1.086a3.086 3.086 0 0 0 3.022 0 3.02 3.02 0 0 0 1.116-1.086.75.75 0 0 0-1.29-.767 1.514 1.514 0 0 1-.56.545 1.587 1.587 0 0 1-1.553 0 1.514 1.514 0 0 1-.562-.545Z"/></svg>