<svg viewBox="0 0 24 24" xmlns="http://www.w3.org/2000/svg"><path d="M13.982 19.883a2.26 2.26 0 0 1-.838.815 2.336 2.336 0 0 1-2.288 0 2.264 2.264 0 0 1-.838-.815M11.25 6.5c0-1.795.9-3.38 2.275-4.326A6.778 6.778 0 0 0 12 2a6.725 6.725 0 0 0-4.7 1.905A6.493 6.493 0 0 0 5.335 8.55c0 3.63-.882 5.751-1.61 6.89-.341.532-.239 1.179-.056 1.595.18.409.609.965 1.304.965h14.054c.695 0 1.124-.556 1.304-.965.183-.416.285-1.063-.055-1.595-.53-.827-1.14-2.174-1.434-4.24a5.25 5.25 0 0 1-7.592-4.7Z"/><path d="M13.75 6.5a2.75 2.75 0 1 1 5.5 0 2.75 2.75 0 0 1-5.5 0Z"/></svg>