<svg viewBox="0 0 24 24" xmlns="http://www.w3.org/2000/svg"><path fill-rule="evenodd" clip-rule="evenodd" d="M20.555 4.065c-1.616-.513-2.965-.729-4.354-.676-1.316.05-2.632.34-4.195.798-1.575-.485-2.891-.759-4.208-.792-1.383-.034-2.722.198-4.319.674A1.73 1.73 0 0 0 2.25 5.731v11.895c0 1.204 1.16 1.996 2.256 1.715 2.626-.674 4.356-.47 7.285.38a.75.75 0 0 0 .396.005c3.045-.786 4.8-.886 7.38-.31 1.085.241 2.183-.558 2.183-1.725V5.713c0-.737-.466-1.417-1.195-1.648ZM12.75 5.533c1.365-.386 2.454-.606 3.508-.646 1.177-.044 2.35.134 3.843.608.08.025.149.107.149.218v11.978c0 .152-.155.305-.357.26-2.575-.574-4.454-.526-7.144.093l.001-12.51Zm-1.5-.007c-1.356-.4-2.44-.605-3.49-.631-1.176-.03-2.35.164-3.852.612a.23.23 0 0 0-.158.224v11.895c0 .152.165.318.383.262 2.657-.682 4.55-.546 7.117.126V5.526Z"/></svg>