<svg viewBox="0 0 24 24" xmlns="http://www.w3.org/2000/svg"><path d="M5 3.25A1.75 1.75 0 0 0 3.25 5v9c0 .966.784 1.75 1.75 1.75h2v-1.5H5a.25.25 0 0 1-.25-.25V5A.25.25 0 0 1 5 4.75h9a.25.25 0 0 1 .25.25v2h1.5V5A1.75 1.75 0 0 0 14 3.25H5Z"/><path fill-rule="evenodd" clip-rule="evenodd" d="M10 8.25A1.75 1.75 0 0 0 8.25 10v9c0 .966.784 1.75 1.75 1.75h9A1.75 1.75 0 0 0 20.75 19v-9A1.75 1.75 0 0 0 19 8.25h-9ZM9.75 10a.25.25 0 0 1 .25-.25h9a.25.25 0 0 1 .25.25v9a.25.25 0 0 1-.25.25h-9a.25.25 0 0 1-.25-.25v-9Z"/></svg>