<svg viewBox="0 0 24 24" xmlns="http://www.w3.org/2000/svg"><path d="M8.47 8.47a.75.75 0 0 1 1.06 0L12 10.94l2.47-2.47a.75.75 0 1 1 1.06 1.06L13.06 12l2.47 2.47a.75.75 0 1 1-1.06 1.06L12 13.06l-2.47 2.47a.75.75 0 0 1-1.06-1.06L10.94 12 8.47 9.53a.75.75 0 0 1 0-1.06Z"/><path fill-rule="evenodd" clip-rule="evenodd" d="M5 3.25A1.75 1.75 0 0 0 3.25 5v14c0 .966.784 1.75 1.75 1.75h14A1.75 1.75 0 0 0 20.75 19V5A1.75 1.75 0 0 0 19 3.25H5ZM4.75 5A.25.25 0 0 1 5 4.75h14a.25.25 0 0 1 .25.25v14a.25.25 0 0 1-.25.25H5a.25.25 0 0 1-.25-.25V5Z"/></svg>