<svg viewBox="0 0 24 24" xmlns="http://www.w3.org/2000/svg"><path fill-rule="evenodd" clip-rule="evenodd" d="M18.057 19.641a.747.747 0 0 1-.114.089A9.707 9.707 0 0 1 12 21.75c-5.385 0-9.75-4.365-9.75-9.75S6.615 2.25 12 2.25s9.75 4.365 9.75 9.75a9.776 9.776 0 0 1-.775 3.816 9.781 9.781 0 0 1-2.918 3.825ZM12 3.75A8.25 8.25 0 0 0 4.84 16.1l.337-.337a.25.25 0 0 0 .073-.177V12.82c0-.364.114-.72.326-1.017l1.777-2.488a1.75 1.75 0 0 1 2.325-.483l1.412.847a.25.25 0 0 0 .16.034l3.254-.407a.25.25 0 0 0 .164-.092l1.527-1.909a.25.25 0 0 0 .055-.156V4.927A8.211 8.211 0 0 0 12 3.75Zm5.75 2.334v1.065c0 .398-.135.783-.384 1.093l-1.527 1.91a1.75 1.75 0 0 1-1.15.643l-3.253.406a1.75 1.75 0 0 1-1.118-.236l-1.412-.847a.25.25 0 0 0-.332.07l-1.777 2.487a.25.25 0 0 0-.047.145v2.766c0 .464-.184.909-.513 1.237l-.521.522A8.232 8.232 0 0 0 12 20.25c1.608 0 3.109-.46 4.377-1.256-.098-.099-.386-.383-.386-.383l-2.014-.525a1.5 1.5 0 0 1-1.088-1.666l.218-1.535a1.519 1.519 0 0 1 .908-1.148l2.853-1.192a1.5 1.5 0 0 1 1.593.281l1.494 1.368A8.258 8.258 0 0 0 20.25 12c0-2.32-.958-4.417-2.5-5.916Zm-.17 11.992a8.279 8.279 0 0 0 1.797-2.378l-1.93-1.767c-.413.172-2.86 1.2-2.86 1.2l-.214 1.508 2.019.526c.252.07.481.204.666.389l.523.522Z"/></svg>