<svg viewBox="0 0 24 24" xmlns="http://www.w3.org/2000/svg"><path d="M14.416 11.376a.75.75 0 0 1 .208 1.04l-2.667 4a.75.75 0 0 1-1.2.064l-1.333-1.6a.75.75 0 1 1 1.152-.96l.69.828 2.11-3.164a.75.75 0 0 1 1.04-.208Z"/><path fill-rule="evenodd" clip-rule="evenodd" d="M17 2.25a.75.75 0 0 1 .75.75v.58A3.501 3.501 0 0 1 20.5 7v10a3.5 3.5 0 0 1-3.5 3.5H7A3.5 3.5 0 0 1 3.5 17V7a3.501 3.501 0 0 1 2.75-3.42V3a.75.75 0 0 1 1.5 0v.5h8.5V3a.75.75 0 0 1 .75-.75ZM7 5a2 2 0 0 0-2 2v1.25h14V7a2 2 0 0 0-2-2H7Zm12 4.75H5V17a2 2 0 0 0 2 2h10a2 2 0 0 0 2-2V9.75Z"/></svg>