<svg viewBox="0 0 24 24" xmlns="http://www.w3.org/2000/svg"><path fill-rule="evenodd" clip-rule="evenodd" d="M6.25 6.5A3.25 3.25 0 0 1 12 4.423a3.25 3.25 0 0 1 5.24 3.827H20a.75.75 0 0 1 0 1.5h-.25V19A1.75 1.75 0 0 1 18 20.75H6A1.75 1.75 0 0 1 4.25 19V9.75H4a.75.75 0 0 1 0-1.5h2.76a3.235 3.235 0 0 1-.51-1.75Zm6.5 12.75H18a.25.25 0 0 0 .25-.25V9.75h-5.5v9.5Zm-1.5-9.5v9.5H6a.25.25 0 0 1-.25-.25V9.75h5.5Zm5-3.25a1.75 1.75 0 0 1-1.75 1.75h-1.75V6.5a1.75 1.75 0 1 1 3.5 0Zm-5 0v1.75H9.5a1.75 1.75 0 1 1 1.75-1.75Z"/></svg>