<svg viewBox="0 0 24 24" xmlns="http://www.w3.org/2000/svg"><path d="M5 18a1 1 0 1 1 2 0 1 1 0 0 1-2 0Zm13-1a1 1 0 1 0 0 2 1 1 0 0 0 0-2Zm-3-1a1 1 0 1 1 2 0 1 1 0 0 1-2 0Zm1-5a.75.75 0 1 0 0 1.5.75.75 0 0 0 0-1.5Zm-2.75 2.75a.75.75 0 1 1 1.5 0 .75.75 0 0 1-1.5 0Zm4.5-.75a.75.75 0 1 0 0 1.5.75.75 0 0 0 0-1.5ZM9 18a1 1 0 1 1 2 0 1 1 0 0 1-2 0Zm-1-3a1 1 0 1 0 0 2 1 1 0 0 0 0-2Zm-.75-3.25a.75.75 0 1 1 1.5 0 .75.75 0 0 1-1.5 0ZM10 13a.75.75 0 1 0 0 1.5.75.75 0 0 0 0-1.5Zm-4.5.75a.75.75 0 1 1 1.5 0 .75.75 0 0 1-1.5 0ZM14 17a1 1 0 1 0 0 2 1 1 0 0 0 0-2Zm-3-1a1 1 0 1 1 2 0 1 1 0 0 1-2 0Zm1-5a.75.75 0 1 0 0 1.5.75.75 0 0 0 0-1.5Z"/><path fill-rule="evenodd" clip-rule="evenodd" d="M3.25 6A2.75 2.75 0 0 1 6 3.25h12A2.75 2.75 0 0 1 20.75 6v12A2.75 2.75 0 0 1 18 20.75H6A2.75 2.75 0 0 1 3.25 18V6ZM6 4.75c-.69 0-1.25.56-1.25 1.25v12c0 .69.56 1.25 1.25 1.25h12c.69 0 1.25-.56 1.25-1.25V6c0-.69-.56-1.25-1.25-1.25H6Z"/></svg>