<svg viewBox="0 0 24 24" xmlns="http://www.w3.org/2000/svg"><path fill-rule="evenodd" clip-rule="evenodd" d="M13.75 9c0 1.55-.742 2.926-1.89 3.793 2.256.899 3.89 2.834 3.89 5.207a.75.75 0 0 1-1.5 0c0-2.225-2.217-4.25-5.25-4.25S3.75 15.775 3.75 18a.75.75 0 0 1-1.5 0c0-2.373 1.634-4.309 3.89-5.207A4.75 4.75 0 1 1 13.75 9Zm-8 0a3.25 3.25 0 1 1 6.5 0 3.25 3.25 0 0 1-6.5 0Z"/><path fill-rule="evenodd" clip-rule="evenodd" d="M17.5 7.25a3.25 3.25 0 0 0-2.269 5.577 4.367 4.367 0 0 0-.2.118.75.75 0 1 0 .8 1.27 3.136 3.136 0 0 1 1.669-.465c1.631 0 2.75 1.112 2.75 2.25a.75.75 0 0 0 1.5 0c0-1.383-.815-2.524-1.983-3.17A3.25 3.25 0 0 0 17.5 7.25Zm-1.75 3.25a1.75 1.75 0 1 1 3.5 0 1.75 1.75 0 0 1-3.5 0Z"/></svg>