<svg viewBox="0 0 24 24" xmlns="http://www.w3.org/2000/svg"><path fill-rule="evenodd" clip-rule="evenodd" d="M8.997 20.75h8.076a2.75 2.75 0 0 0 2.732-2.438l.821-7.205a2.75 2.75 0 0 0-.924-2.384l-5.894-5.141a2.75 2.75 0 0 0-3.616 0L4.298 8.723a2.75 2.75 0 0 0-.924 2.384l.821 7.205a2.75 2.75 0 0 0 2.733 2.438h2.069Zm2.181-16.038a1.25 1.25 0 0 1 1.644 0l5.894 5.142c.31.27.466.675.42 1.083l-.822 7.205a1.25 1.25 0 0 1-1.242 1.108H15.75V15A2.75 2.75 0 0 0 13 12.25h-2A2.75 2.75 0 0 0 8.25 15v4.25H6.928a1.25 1.25 0 0 1-1.242-1.108l-.822-7.205a1.25 1.25 0 0 1 .42-1.083l5.894-5.142ZM14.25 19.25h-4.5V15c0-.69.56-1.25 1.25-1.25h2c.69 0 1.25.56 1.25 1.25v4.25Z"/></svg>