<svg viewBox="0 0 24 24" xmlns="http://www.w3.org/2000/svg"><path fill-rule="evenodd" clip-rule="evenodd" d="M12 22c5.523 0 10-4.477 10-10S17.523 2 12 2 2 6.477 2 12s4.477 10 10 10ZM9.957 9.859c.758-.832 1.034-1.891 1.325-3.01l.056-.213c.122-.464.61-.856 1.007-.587.39.264.806.906 1.173 2.53.107.471.518.82 1.002.82h1.8a1 1 0 0 1 .942 1.338l-1.746 4.874a1 1 0 0 1-.942.663h-3.947a1 1 0 0 1-1-1v-4.636c0-.292.133-.563.33-.78Zm-3.228 5.546v-4.058a.87.87 0 1 1 1.739 0v4.058a.87.87 0 1 1-1.739 0Z"/></svg>