<svg viewBox="0 0 24 24" xmlns="http://www.w3.org/2000/svg"><path fill-rule="evenodd" clip-rule="evenodd" d="M18.463 3.25H5.537L3.54 7.242a2.75 2.75 0 0 0-.29 1.23V10a2.75 2.75 0 0 0 2 2.646v3.604H4a.75.75 0 0 0 0 1.5h1.25V20a.75.75 0 0 0 1.5 0v-2.25h10.5V20a.75.75 0 0 0 1.5 0v-2.25H20a.75.75 0 0 0 0-1.5h-1.25v-3.604a2.751 2.751 0 0 0 2-2.646V8.472c0-.427-.1-.848-.29-1.23L18.463 3.25Zm-1.213 9.396v3.604H6.75v-3.604A2.75 2.75 0 0 0 8 11.887a2.742 2.742 0 0 0 2 .863c.788 0 1.499-.331 2-.863a2.742 2.742 0 0 0 2 .863c.788 0 1.499-.331 2-.863a2.75 2.75 0 0 0 1.25.76ZM18 11.25c.69 0 1.25-.56 1.25-1.25V8.472a1.25 1.25 0 0 0-.132-.559L17.537 4.75H6.463L4.882 7.913a1.25 1.25 0 0 0-.132.56V10a1.25 1.25 0 1 0 2.5 0V9a.75.75 0 0 1 1.5 0v1a1.25 1.25 0 1 0 2.5 0V9a.75.75 0 0 1 1.5 0v1a1.25 1.25 0 1 0 2.5 0V9a.75.75 0 0 1 1.5 0v1c0 .69.56 1.25 1.25 1.25Z"/></svg>