<svg viewBox="0 0 24 24" xmlns="http://www.w3.org/2000/svg"><path fill-rule="evenodd" clip-rule="evenodd" d="M14.26 3.984a1.75 1.75 0 0 1 2.49 1.586v9.953a1.75 1.75 0 0 1-2.4 1.625L2.866 12.554c-1.423-.569-1.479-2.562-.09-3.21l11.484-5.36Zm.99 1.586a.25.25 0 0 0-.356-.226L3.41 10.703a.25.25 0 0 0 .013.459l11.484 4.593a.25.25 0 0 0 .343-.232V5.57Z"/><path d="M6 15.25a.75.75 0 0 1 .75.75v3a.75.75 0 0 1-1.5 0v-3a.75.75 0 0 1 .75-.75Zm13-4h2a.75.75 0 0 0 0-1.5h-2a.75.75 0 0 0 0 1.5Zm1.53-6.78a.75.75 0 0 1 0 1.06l-1 1a.75.75 0 1 1-1.06-1.06l1-1a.75.75 0 0 1 1.06 0Zm0 11-1-1a.75.75 0 1 0-1.06 1.06l1 1a.75.75 0 1 0 1.06-1.06Z"/></svg>