<svg viewBox="0 0 24 24" xmlns="http://www.w3.org/2000/svg"><path d="M19.5 12.323c0 3.819-1.728 7.26-4.492 9.677l-9.883-9.677H19.5Z" fill="url(#a)"/><path d="M19.5 12.323H5.125L15.008 2A14.073 14.073 0 0 1 19.5 12.323Z" fill="url(#b)"/><path d="M21.27 16.839c.474-1.52.73-3.148.73-4.839 0-1.691-.256-3.318-.73-4.839L5.126 12.323l16.146 4.516Z" fill="url(#c)"/><path d="M6.375 10.161a3 3 0 0 1 3-3H11.5a3 3 0 0 1 3 3V16.8a1.976 1.976 0 0 1-3.395 1.374l-.668-.69H9.376a3 3 0 0 1-3-3v-4.322Z" fill-opacity=".3"/><rect x="2" y="5.871" width="11.25" height="11.613" rx="2" fill="url(#d)"/><path d="M7.485 11.027 6.012 8.452H4.5l2.398 4.156v2.295h1.444v-2.295l2.408-4.156H9.228l-1.473 2.575h-.27Z" fill="#fff"/><defs><linearGradient id="a" x1="11.189" y1="15.466" x2="17.494" y2="19.183" gradientUnits="userSpaceOnUse"><stop stop-color="#0E51A3"/><stop offset="1" stop-color="#1464B6"/></linearGradient><linearGradient id="b" x1="10.066" y1="9.847" x2="17.696" y2="5.575" gradientUnits="userSpaceOnUse"><stop stop-color="#2292E2"/><stop offset="1" stop-color="#2294DB"/></linearGradient><linearGradient id="c" x1="9.85" y1="12.231" x2="21.775" y2="12.231" gradientUnits="userSpaceOnUse"><stop stop-color="#176FE0"/><stop offset="1" stop-color="#2F9FEF"/></linearGradient><linearGradient id="d" x1="2" y1="11.677" x2="13.25" y2="11.677" gradientUnits="userSpaceOnUse"><stop stop-color="#084C8A"/><stop offset="1" stop-color="#1572CB"/></linearGradient></defs></svg>