<svg viewBox="0 0 24 24" xmlns="http://www.w3.org/2000/svg"><path d="M7 3.25A3.75 3.75 0 0 0 3.25 7v10A3.75 3.75 0 0 0 7 20.75h2a.75.75 0 0 0 0-1.5H7A2.25 2.25 0 0 1 4.75 17V7A2.25 2.25 0 0 1 7 4.75h10A2.25 2.25 0 0 1 19.25 7v1a.75.75 0 0 0 1.5 0V7A3.75 3.75 0 0 0 17 3.25H7Z"/><path d="M13.946 7.25a3.696 3.696 0 0 0-3.696 3.696V15.5a5.25 5.25 0 1 0 10.5 0v-3.167a.75.75 0 0 0-1.5 0V15.5a3.75 3.75 0 1 1-7.5 0v-4.554a2.196 2.196 0 0 1 4.393 0v4.94a.696.696 0 0 1-1.393 0v-4.553a.75.75 0 0 0-1.5 0v4.554a2.196 2.196 0 1 0 4.393 0v-4.94a3.696 3.696 0 0 0-3.697-3.697Z"/></svg>