<svg viewBox="0 0 24 24" xmlns="http://www.w3.org/2000/svg"><path d="M15.5 10a1.5 1.5 0 1 0 0-3 1.5 1.5 0 0 0 0 3Z"/><path fill-rule="evenodd" clip-rule="evenodd" d="M3.25 7A3.75 3.75 0 0 1 7 3.25h10A3.75 3.75 0 0 1 20.75 7v10A3.75 3.75 0 0 1 17 20.75H7A3.75 3.75 0 0 1 3.25 17V7ZM7 4.75A2.25 2.25 0 0 0 4.75 7v3.957c1.947-.587 3.42-.617 4.632-.263 1.402.41 2.334 1.305 3.138 2.078l.003.003c.829.796 1.528 1.469 2.55 1.82.922.318 2.2.398 4.177-.154V7A2.25 2.25 0 0 0 17 4.75H7ZM4.75 17v-4.469c2.006-.672 3.292-.666 4.212-.397 1.004.293 1.697.93 2.518 1.72l.08.075c.777.75 1.686 1.624 3.024 2.085 1.212.417 2.694.473 4.666-.021V17A2.25 2.25 0 0 1 17 19.25H7A2.25 2.25 0 0 1 4.75 17Z"/></svg>