<svg viewBox="0 0 24 24" xmlns="http://www.w3.org/2000/svg"><path d="M7 3.25A3.75 3.75 0 0 0 3.25 7v10A3.75 3.75 0 0 0 7 20.75h4a.75.75 0 0 0 0-1.5H7A2.25 2.25 0 0 1 4.75 17v-4.467c2.147-.699 3.315-.432 4.185.01.419.214.78.472 1.189.764.096.069.195.14.298.212.517.364 1.112.751 1.852.985a.75.75 0 0 0 .452-1.43c-.51-.161-.949-.436-1.441-.782a36.596 36.596 0 0 1-.256-.182c-.413-.296-.885-.634-1.414-.903-1.205-.614-2.671-.865-4.865-.242V7A2.25 2.25 0 0 1 7 4.75h10A2.25 2.25 0 0 1 19.25 7v4a.75.75 0 0 0 1.5 0V7A3.75 3.75 0 0 0 17 3.25H7Z"/><path d="M15.5 10a1.5 1.5 0 1 0 0-3 1.5 1.5 0 0 0 0 3Zm1.5 3.25a.75.75 0 0 1 .75.75v2.25H20a.75.75 0 0 1 0 1.5h-2.25V20a.75.75 0 0 1-1.5 0v-2.25H14a.75.75 0 0 1 0-1.5h2.25V14a.75.75 0 0 1 .75-.75Z"/></svg>