<svg viewBox="0 0 24 24" xmlns="http://www.w3.org/2000/svg"><path fill-rule="evenodd" clip-rule="evenodd" d="M6.272 3.818A.75.75 0 0 1 7 3.25h10a.75.75 0 0 1 .728.568l.858 3.432c1.22 0 2.164 1.05 2.164 2.25V16A1.75 1.75 0 0 1 19 17.75h-1.25V20a.75.75 0 0 1-.75.75H7a.75.75 0 0 1-.75-.75v-2.25H5A1.75 1.75 0 0 1 3.25 16V9.5c0-1.2.944-2.25 2.164-2.25l.858-3.432Zm.689 3.432h10.078l-.625-2.5H7.586l-.625 2.5Zm-.711 9V14a.75.75 0 0 1 .75-.75h10a.75.75 0 0 1 .75.75v2.25H19a.25.25 0 0 0 .25-.25V9.5c0-.468-.343-.75-.634-.75H5.384c-.29 0-.634.282-.634.75V16c0 .138.112.25.25.25h1.25Zm10-1.5h-8.5v4.5h8.5v-4.5Z"/></svg>