<svg viewBox="0 0 24 24" xmlns="http://www.w3.org/2000/svg"><path d="M8.588 14.677A2.823 2.823 0 0 1 11.168 13h1.664c1.116 0 2.127.657 2.58 1.677a.941.941 0 0 1-.86 1.323H9.448a.941.941 0 0 1-.86-1.323ZM14 10a2 2 0 1 1-4 0 2 2 0 0 1 4 0Z"/><path fill-rule="evenodd" clip-rule="evenodd" d="M7 3.25A3.75 3.75 0 0 0 3.25 7v.25H2a.75.75 0 0 0 0 1.5h1.25v2.5H2a.75.75 0 0 0 0 1.5h1.25v2.5H2a.75.75 0 0 0 0 1.5h1.25V17A3.75 3.75 0 0 0 7 20.75h10A3.75 3.75 0 0 0 20.75 17V7A3.75 3.75 0 0 0 17 3.25H7Zm-2.25 5.5v2.5H5a.75.75 0 0 1 0 1.5h-.25v2.5H5a.75.75 0 0 1 0 1.5h-.25V17A2.25 2.25 0 0 0 7 19.25h10A2.25 2.25 0 0 0 19.25 17V7A2.25 2.25 0 0 0 17 4.75H7A2.25 2.25 0 0 0 4.75 7v.25H5a.75.75 0 0 1 0 1.5h-.25Z"/></svg>