<svg viewBox="0 0 24 24" xmlns="http://www.w3.org/2000/svg"><path fill-rule="evenodd" clip-rule="evenodd" d="M18.15 5.265a.75.75 0 0 1 .546.456l1.752 4.379a4.5 4.5 0 1 1-7.39 2.68 4.585 4.585 0 0 0-1.084-.136 4.573 4.573 0 0 0-1.031.136 4.5 4.5 0 1 1-7.39-2.68l1.75-4.379A.75.75 0 0 1 6.53 5.47l1 1a.75.75 0 0 1-1.06 1.06l-.196-.195-.705 1.761a4.495 4.495 0 0 1 4.61 1.813c.616-.164 1.186-.261 1.784-.265.606-.003 1.199.09 1.857.265a4.495 4.495 0 0 1 4.61-1.813l-.704-1.761-.196.195a.75.75 0 1 1-1.06-1.06l1-1a.75.75 0 0 1 .68-.205Z"/></svg>