<svg viewBox="0 0 24 24" xmlns="http://www.w3.org/2000/svg"><path fill-rule="evenodd" clip-rule="evenodd" d="M18.15 5.265a.75.75 0 0 1 .546.456l1.984 4.96a4.25 4.25 0 1 1-7.333 1.914c-.544-.144-.97-.203-1.374-.2-.4.001-.808.064-1.32.199A4.25 4.25 0 1 1 3.32 10.68l1.984-4.959A.75.75 0 0 1 6.53 5.47l1 1a.75.75 0 0 1-1.06 1.06l-.196-.195-.818 2.044a4.259 4.259 0 0 1 4.617 1.818c.67-.188 1.268-.3 1.891-.303.629-.004 1.248.102 1.963.303a4.246 4.246 0 0 1 4.617-1.818l-.818-2.044-.196.195a.75.75 0 1 1-1.06-1.06l1-1a.75.75 0 0 1 .68-.205ZM3.75 13.5a2.75 2.75 0 1 1 5.5 0 2.75 2.75 0 0 1-5.5 0Zm13.75-2.75a2.75 2.75 0 1 0 0 5.5 2.75 2.75 0 0 0 0-5.5Z"/></svg>