<svg viewBox="0 0 24 24" xmlns="http://www.w3.org/2000/svg"><path fill-rule="evenodd" clip-rule="evenodd" d="M12 8.25a3.75 3.75 0 1 0 0 7.5 3.75 3.75 0 0 0 0-7.5ZM9.75 12a2.25 2.25 0 1 1 4.5 0 2.25 2.25 0 0 1-4.5 0Z"/><path fill-rule="evenodd" clip-rule="evenodd" d="M10.73 2.25A1.75 1.75 0 0 0 8.98 4v.654A1.25 1.25 0 0 1 7.109 5.74l-.605-.346a1.75 1.75 0 0 0-2.381.638l-1.264 2.17a1.75 1.75 0 0 0 .643 2.399l.55.315a1.25 1.25 0 0 1 0 2.17l-.55.315a1.75 1.75 0 0 0-.643 2.4l1.264 2.169a1.75 1.75 0 0 0 2.381.638l.605-.346a1.25 1.25 0 0 1 1.87 1.085V20c0 .966.784 1.75 1.75 1.75h2.541A1.75 1.75 0 0 0 15.02 20v-.654a1.25 1.25 0 0 1 1.871-1.085l.605.346a1.75 1.75 0 0 0 2.381-.638l1.264-2.17a1.75 1.75 0 0 0-.643-2.399l-.55-.315a1.25 1.25 0 0 1 0-2.17l.55-.315a1.75 1.75 0 0 0 .643-2.4l-1.264-2.169a1.75 1.75 0 0 0-2.381-.638l-.605.346a1.25 1.25 0 0 1-1.87-1.085V4a1.75 1.75 0 0 0-1.75-1.75H10.73ZM10.48 4a.25.25 0 0 1 .25-.25h2.54a.25.25 0 0 1 .25.25v.654c0 2.113 2.283 3.436 4.116 2.387l.605-.346a.25.25 0 0 1 .34.091l1.264 2.17a.25.25 0 0 1-.092.342l-.55.315c-1.846 1.056-1.846 3.718 0 4.774l.55.315a.25.25 0 0 1 .092.343l-1.264 2.169a.25.25 0 0 1-.34.09l-.605-.345c-1.833-1.05-4.116.274-4.116 2.387V20a.25.25 0 0 1-.25.25h-2.54a.25.25 0 0 1-.25-.25v-.654c0-2.113-2.283-3.436-4.116-2.387l-.605.346a.25.25 0 0 1-.34-.091l-1.264-2.17a.25.25 0 0 1 .092-.342l.55-.315c1.846-1.056 1.846-3.718 0-4.774l-.55-.315a.25.25 0 0 1-.092-.343L5.42 6.786a.25.25 0 0 1 .34-.09l.605.345c1.833 1.05 4.116-.274 4.116-2.387V4Z"/></svg>