<svg viewBox="0 0 24 24" xmlns="http://www.w3.org/2000/svg"><path fill-rule="evenodd" clip-rule="evenodd" d="M12.75 4.742V8.5a.75.75 0 0 1-.512.711l-.065.022c-1.604.535-3.435 1.147-4.892 2.344-1.169.961-2.12 2.322-2.427 4.416a9.777 9.777 0 0 1 2.112-1.005c1.308-.436 2.865-.641 5.034-.641a.75.75 0 0 1 .75.75v3.678l7.177-7.242-7.177-6.79Zm-1.5-.58c0-1.098 1.312-1.663 2.11-.908l7.784 7.366c.51.482.522 1.29.029 1.788l-7.785 7.854c-.786.793-2.138.236-2.138-.88v-3.526c-1.673.043-2.85.235-3.81.555-1.09.364-1.953.91-2.99 1.689a.75.75 0 0 1-1.2-.6c0-3.426 1.303-5.622 3.078-7.081 1.546-1.27 3.42-1.954 4.922-2.46V4.162Z"/></svg>