<svg viewBox="0 0 100 40" xmlns="http://www.w3.org/2000/svg"><path fill-rule="evenodd" clip-rule="evenodd" d="M3.25 4A.75.75 0 0 1 4 3.25h18a.75.75 0 0 1 .75.75v32a.75.75 0 0 1-.75.75H4a.75.75 0 0 1-.75-.75V4Zm1.5.75v30.5h16.5V4.75H4.75ZM77.25 4a.75.75 0 0 1 .75-.75h18a.75.75 0 0 1 .75.75v32a.75.75 0 0 1-.75.75H78a.75.75 0 0 1-.75-.75V4Zm1.5.75v30.5h16.5V4.75h-16.5ZM30 3.25a.75.75 0 0 0-.75.75v32c0 .414.336.75.75.75h40a.75.75 0 0 0 .75-.75V4a.75.75 0 0 0-.75-.75H30Zm.75 32V4.75h38.5v30.5h-38.5Z"/></svg>