<svg viewBox="0 0 100 40" xmlns="http://www.w3.org/2000/svg"><path fill-rule="evenodd" clip-rule="evenodd" d="M4.69 4c-.381 0-.69.336-.69.75v32c0 .414.309.75.69.75h15.62c.381 0 .69-.336.69-.75v-32c0-.414-.309-.75-.69-.75H4.69Zm.688 32V5.5h14.244V36H5.378ZM29.69 4c-.381 0-.69.336-.69.75v32c0 .414.309.75.69.75h15.62c.381 0 .69-.336.69-.75v-32c0-.414-.309-.75-.69-.75H29.69Zm.688 32V5.5h14.244V36H30.378ZM54 4.75c0-.414.309-.75.69-.75h15.62c.381 0 .69.336.69.75v32c0 .414-.309.75-.69.75H54.69c-.381 0-.69-.336-.69-.75v-32Zm1.378.75V36h14.244V5.5H55.378ZM79.69 4c-.381 0-.69.336-.69.75v32c0 .414.309.75.69.75h15.62c.381 0 .69-.336.69-.75v-32c0-.414-.309-.75-.69-.75H79.69Zm.688 32V5.5h14.244V36H80.378Z"/></svg>