<svg viewBox="0 0 100 40" xmlns="http://www.w3.org/2000/svg"><path fill-rule="evenodd" clip-rule="evenodd" d="M4 4.75c0-.414.317-.75.708-.75h23.917c.391 0 .708.336.708.75v32c0 .414-.317.75-.708.75H4.708c-.391 0-.708-.336-.708-.75v-32Zm1.416.75V36h22.501V5.5h-22.5Zm31.917-.75c0-.414.317-.75.708-.75H61.96c.39 0 .708.336.708.75v32c0 .414-.317.75-.708.75H38.04c-.39 0-.708-.336-.708-.75v-32Zm1.416.75V36h22.502V5.5H38.749ZM71.375 4c-.391 0-.708.336-.708.75v32c0 .414.317.75.708.75h23.917c.391 0 .708-.336.708-.75v-32c0-.414-.317-.75-.708-.75H71.375Zm.708 32V5.5h22.5V36h-22.5Z"/></svg>