<svg viewBox="0 0 24 24" xmlns="http://www.w3.org/2000/svg"><path fill-rule="evenodd" clip-rule="evenodd" d="M10.372 4.084c.583-1.478 2.673-1.478 3.256 0l1.739 4.408a.25.25 0 0 0 .14.141l4.41 1.739c1.477.583 1.477 2.673 0 3.256l-4.41 1.739a.25.25 0 0 0-.14.14l-1.739 4.41c-.583 1.477-2.673 1.477-3.256 0l-1.739-4.41a.25.25 0 0 0-.14-.14l-4.41-1.739c-1.477-.583-1.477-2.673 0-3.256l4.41-1.739a.25.25 0 0 0 .14-.14l1.739-4.41Zm1.86.55a.25.25 0 0 0-.465 0L10.03 9.043a1.75 1.75 0 0 1-.986.986l-4.41 1.738a.25.25 0 0 0 0 .466l4.41 1.738c.45.178.808.535.986.986l1.738 4.41a.25.25 0 0 0 .466 0l1.738-4.41a1.75 1.75 0 0 1 .986-.986l4.41-1.738a.25.25 0 0 0 0-.466l-4.41-1.738a1.75 1.75 0 0 1-.986-.986l-1.738-4.41Z"/><path d="M21 18a1 1 0 1 1-2 0 1 1 0 0 1 2 0ZM4.5 6a1.5 1.5 0 1 0 0-3 1.5 1.5 0 0 0 0 3Z"/></svg>