<svg viewBox="0 0 24 24" xmlns="http://www.w3.org/2000/svg"><path fill-rule="evenodd" clip-rule="evenodd" d="M12.663 5.65a.75.75 0 0 0-1.326 0L9.675 8.8l-3.51.607a.75.75 0 0 0-.41 1.262l2.483 2.553-.507 3.525a.75.75 0 0 0 1.073.78L12 15.956l3.196 1.571a.75.75 0 0 0 1.073-.78l-.507-3.525 2.482-2.553a.75.75 0 0 0-.41-1.262L14.325 8.8l-1.662-3.15ZM10.83 9.826 12 7.607l1.17 2.219a.75.75 0 0 0 .536.389l2.472.428-1.748 1.798a.75.75 0 0 0-.205.63l.357 2.483-2.251-1.107a.75.75 0 0 0-.662 0l-2.251 1.107.357-2.483a.75.75 0 0 0-.204-.63l-1.749-1.798 2.472-.428a.75.75 0 0 0 .535-.39Z"/><path fill-rule="evenodd" clip-rule="evenodd" d="M12 2.25c-5.385 0-9.75 4.365-9.75 9.75s4.365 9.75 9.75 9.75 9.75-4.365 9.75-9.75S17.385 2.25 12 2.25ZM3.75 12a8.25 8.25 0 1 1 16.5 0 8.25 8.25 0 0 1-16.5 0Z"/></svg>