<svg viewBox="0 0 24 24" xmlns="http://www.w3.org/2000/svg"><path d="M9.75 4a.75.75 0 0 0-1.5 0v1.25H4a.75.75 0 0 0 0 1.5h7.091a8.671 8.671 0 0 1-2.673 4.415 6.89 6.89 0 0 1-1.683-3.312l-1.47.294a8.388 8.388 0 0 0 1.943 3.915 8.66 8.66 0 0 1-3.314 1.196l.212 1.485a10.157 10.157 0 0 0 4.228-1.621 8.387 8.387 0 0 0 3.519 1.613l.294-1.47a6.889 6.889 0 0 1-2.592-1.106A10.166 10.166 0 0 0 12.63 6.75H14a.75.75 0 0 0 0-1.5H9.75V4Z"/><path fill-rule="evenodd" clip-rule="evenodd" d="M15.289 10.763A.75.75 0 0 1 16 10.25h1a.75.75 0 0 1 .712.513l1.994 5.983c.004.011.008.022.01.033l.995 2.984a.75.75 0 0 1-1.422.474l-.83-2.487h-3.918l-.83 2.487a.75.75 0 0 1-1.422-.474l3-9Zm-.248 5.487h2.918L16.5 11.872l-1.46 4.378Z"/></svg>