<svg viewBox="0 0 24 24" fill="none" xmlns="http://www.w3.org/2000/svg">
<path d="M21.815 11.8068C21.815 14.4031 20.7837 16.893 18.9479 18.7288C17.1121 20.5646 14.6222 21.5959 12.0259 21.5959C6.61954 21.5959 2.2368 17.2132 2.2368 11.8068C2.2368 6.40044 6.61954 2.0177 12.0259 2.0177C14.6222 2.0177 17.1121 3.04905 18.9479 4.88487C20.7837 6.72068 21.815 9.21059 21.815 11.8068Z" fill="#E4E3E3"/>
<path d="M21.048 11.8067C21.048 16.7895 17.0087 20.8288 12.0259 20.8288C7.04317 20.8288 3.00386 16.7895 3.00386 11.8067C3.00386 6.82398 7.04317 2.78467 12.0259 2.78467C17.0087 2.78467 21.048 6.82398 21.048 11.8067Z" fill="#0BA2E2"/>
<path fill-rule="evenodd" clip-rule="evenodd" d="M12 20C16.4183 20 20 16.4183 20 12C20 7.58172 16.4183 4 12 4C7.58172 4 4 7.58172 4 12C4 16.4183 7.58172 20 12 20Z" stroke="white" stroke-linecap="round" stroke-dasharray="1 2.3"/>
<path d="M18.191 6.54504L10.995 10.727L13.101 12.96L18.191 6.54504Z" fill="#FF5150"/>
<path d="M10.995 10.7271L6.444 17.8901L13.101 12.9601L10.995 10.7271Z" fill="#F1F1F1"/>
</svg>
