<svg viewBox="0 0 24 24" xmlns="http://www.w3.org/2000/svg"><path fill-rule="evenodd" clip-rule="evenodd" d="M5 3.25A1.75 1.75 0 0 0 3.25 5v4c0 .966.784 1.75 1.75 1.75h5A1.75 1.75 0 0 0 11.75 9V5A1.75 1.75 0 0 0 10 3.25H5Zm0 10A1.75 1.75 0 0 0 3.25 15v4c0 .966.784 1.75 1.75 1.75h5A1.75 1.75 0 0 0 11.75 19v-4A1.75 1.75 0 0 0 10 13.25H5Z"/><path d="M14.25 5a.75.75 0 0 1 .75-.75h4a.75.75 0 0 1 0 1.5h-4a.75.75 0 0 1-.75-.75Zm.75 9.25a.75.75 0 0 0 0 1.5h4a.75.75 0 0 0 0-1.5h-4ZM14.25 9a.75.75 0 0 1 .75-.75h4a.75.75 0 0 1 0 1.5h-4a.75.75 0 0 1-.75-.75Zm.75 9.25a.75.75 0 0 0 0 1.5h4a.75.75 0 0 0 0-1.5h-4Z"/></svg>