<svg viewBox="0 0 24 24" xmlns="http://www.w3.org/2000/svg"><path d="M9.41 5.172a.75.75 0 1 1-.504-1.413 8.884 8.884 0 0 1 9.243 2.09 8.875 8.875 0 0 1 2.601 6.278c0 1.88-.21 3.753-.629 5.585a.75.75 0 1 1-1.462-.334 23.56 23.56 0 0 0 .591-5.25 7.375 7.375 0 0 0-7.382-7.378 7.292 7.292 0 0 0-2.458.422Z"/><path d="M13.006 7.448a4.818 4.818 0 0 0-5.953 4.68 11.316 11.316 0 0 1-1.43 5.535.75.75 0 0 0 1.31.73 12.816 12.816 0 0 0 1.62-6.267 3.312 3.312 0 0 1 2.132-3.097 3.318 3.318 0 0 1 3.657.889.75.75 0 1 0 1.118-1 4.816 4.816 0 0 0-2.454-1.47Zm3.678 4.678a.75.75 0 0 0-1.5.002 19.432 19.432 0 0 1-1.468 7.434.75.75 0 1 0 1.387.572 20.93 20.93 0 0 0 1.581-8.008ZM5.126 9.116a7.326 7.326 0 0 1 1.82-2.481c.723-.643-.274-1.764-.997-1.121a8.886 8.886 0 0 0-2.962 6.615 7.33 7.33 0 0 1-.669 3.071.75.75 0 1 0 1.364.626 8.832 8.832 0 0 0 .805-3.7 7.342 7.342 0 0 1 .64-3.01Zm5.592 9.107a.75.75 0 0 1 .353 1c-.181.38-.374.766-.578 1.137a.75.75 0 1 1-1.315-.72c.186-.34.366-.699.54-1.064a.75.75 0 0 1 1-.353Z"/><path d="M12.618 12.126a.75.75 0 1 0-1.5.002 15.29 15.29 0 0 1-.492 3.874.75.75 0 0 0 1.452.377c.36-1.389.543-2.818.54-4.253Z"/></svg>