<svg viewBox="0 0 24 24" xmlns="http://www.w3.org/2000/svg">
  <g clip-path="url(#a)">
    <path d="M3.364 20h3.181v-8.242L2 8.12v10.425C2 19.35 2.611 20 3.364 20Z" fill="#4285F4"/>
    <path d="M17.455 20h3.181c.755 0 1.364-.652 1.364-1.454V8.12l-4.545 3.637" fill="#34A853"/>
    <path d="M17.455 5.455v6.303L22 8.12V6.18c0-1.798-1.925-2.823-3.273-1.745" fill="#FBBC04"/>
    <path d="M6.545 11.758V5.455L12 9.818l5.454-4.363v6.303L12 16.12" fill="#EA4335"/>
    <path d="M2 6.182v1.94l4.545 3.636V5.455L5.273 4.436C3.923 3.358 2 4.383 2 6.182" fill="#C5221F"/>
  </g>
  <defs>
    <clipPath id="a">
      <path fill="#fff" transform="translate(2 4)" d="M0 0h20v16H0z"/>
    </clipPath>
  </defs>
</svg>
