<svg viewBox="0 0 24 24" fill="none" xmlns="http://www.w3.org/2000/svg">
<path d="M21.5788 12.2344C21.5788 11.5567 21.5238 10.8754 21.4066 10.2087H12.0037V14.0476H17.3883C17.1648 15.2857 16.4469 16.3809 15.3956 17.0769V19.5677H18.6081C20.4945 17.8315 21.5788 15.2673 21.5788 12.2344Z" fill="#4285F4"/>
<path d="M12.0037 21.9744C14.6923 21.9744 16.9597 21.0916 18.6117 19.5678L15.3993 17.0769C14.5055 17.685 13.3517 18.0293 12.0073 18.0293C9.4066 18.0293 7.20147 16.2747 6.41026 13.9158H3.09525V16.4835C4.78755 19.8498 8.23444 21.9744 12.0037 21.9744Z" fill="#34A853"/>
<path d="M6.40658 13.9157C5.989 12.6776 5.989 11.337 6.40658 10.0989V7.53113H3.09523C1.68131 10.348 1.68131 13.6667 3.09523 16.4835L6.40658 13.9157Z" fill="#FBBC04"/>
<path d="M12.0037 5.98174C13.4249 5.95976 14.7985 6.49456 15.8278 7.47624L18.674 4.63009C16.8718 2.93778 14.4799 2.00738 12.0037 2.03668C8.23444 2.03668 4.78755 4.16122 3.09525 7.53119L6.4066 10.099C7.19415 7.73632 9.40294 5.98174 12.0037 5.98174Z" fill="#EA4335"/>
</svg>
