<svg viewBox="0 0 24 24" fill="none" xmlns="http://www.w3.org/2000/svg">
<mask id="mask0_29_849" style="mask-type:alpha" maskUnits="userSpaceOnUse" x="2" y="2" width="22" height="19">
<path fill-rule="evenodd" clip-rule="evenodd" d="M10.3863 2C9.53591 2 8.75045 2.45462 8.32687 3.19195L2.33384 13.6243C1.88742 14.4014 1.88882 15.3574 2.3375 16.1332L4.36081 19.6316C4.85061 20.4785 5.75472 21 6.73302 21H18.5049C19.4718 21 20.3672 20.4904 20.861 19.6591L22.9234 16.1869C23.3863 15.4075 23.3935 14.4392 22.9421 13.6532L16.9355 3.19236C16.5119 2.4548 15.7264 2 14.8758 2H10.3863ZM8.69191 14.8798L12.6198 8.05168L16.5477 14.8798H8.69191Z" fill="#C4C4C4"/>
</mask>
<g mask="url(#mask0_29_849)">
<rect x="17.9863" y="-1.28564" width="30.3726" height="6.09102" transform="rotate(120 17.9863 -1.28564)" fill="#34A853"/>
<rect x="-3.20673" y="14.9255" width="30.3726" height="6.09102" fill="#4285F4"/>
<path d="M-1.92319 21.0166L1.59346 14.9255H8.62676L5.11011 21.0166H-1.92319Z" fill="#1967D2"/>
<rect width="20" height="6" transform="matrix(0.5 0.866025 0.866025 -0.5 10.0754 3.604)" fill="#FBBC04"/>
<path d="M23.6452 14.9255H16.6119L20.1286 21.0166H27.1619L23.6452 14.9255Z" fill="#EA4335"/>
<path d="M9.10268 1.91914L12.6193 -4.17188L16.136 1.91914L12.6193 8.01016L9.10268 1.91914Z" fill="#188038"/>
</g>
</svg>
