<svg viewBox="0 0 24 24" xmlns="http://www.w3.org/2000/svg"><path d="M17.263 6.737H6.737v10.526h10.526V6.737Z" fill="#fff"/><path d="M17.263 22 22 17.263h-4.737V22Z" fill="#EA4335"/><path d="M22 6.737h-4.737v10.526H22V6.737Z" fill="#FBBC04"/><path d="M17.263 17.263H6.737V22h10.526v-4.737Z" fill="#34A853"/><path d="M2 17.263v3.158A1.58 1.58 0 0 0 3.579 22h3.158v-4.737H2Z" fill="#188038"/><path d="M22 6.737V3.579A1.58 1.58 0 0 0 20.421 2h-3.158v4.737H22Z" fill="#1967D2"/><path d="M17.263 2H3.58A1.58 1.58 0 0 0 2 3.579v13.684h4.737V6.737h10.526V2Z" fill="#4285F4"/><path d="M8.896 14.903c-.393-.266-.666-.654-.814-1.167l.913-.377c.083.316.227.56.434.735.205.173.455.259.747.259.299 0 .556-.091.77-.273a.87.87 0 0 0 .322-.693.86.86 0 0 0-.34-.703c-.225-.181-.51-.272-.85-.272h-.527v-.904h.474c.292 0 .538-.079.738-.237.2-.158.3-.374.3-.649 0-.244-.09-.44-.268-.585a1.042 1.042 0 0 0-.68-.22c-.269 0-.482.071-.64.215a1.26 1.26 0 0 0-.345.527l-.904-.376c.12-.34.34-.64.662-.899.323-.259.734-.39 1.234-.39.37 0 .703.072.998.215.295.144.526.342.693.595.167.254.25.538.25.854 0 .322-.078.595-.233.818a1.606 1.606 0 0 1-.572.515v.054c.292.12.546.318.734.572a1.5 1.5 0 0 1 .287.921c0 .358-.09.678-.272.958-.182.28-.433.501-.752.662-.32.16-.679.242-1.077.242a2.23 2.23 0 0 1-1.282-.397Zm5.61-4.532-1.003.725-.502-.76L14.8 9.038h.69v6.12h-.985V10.37Z" fill="#4285F4"/></svg>
