<svg viewBox="0 0 24 24" fill="none" xmlns="http://www.w3.org/2000/svg">
<path d="M21.4702 19.8303L21 13H3L2.51633 19.8303C2.51377 19.8661 2.51248 19.9007 2.51248 19.9366C2.51248 20.7861 3.20049 21.474 4.0499 21.474H19.9366C20.7861 21.474 21.474 20.786 21.474 19.9366C21.474 19.9007 21.4728 19.8661 21.4702 19.8303Z" fill="#4889F4"/>
<path d="M19.4241 2H4.56238C3.71294 2 3.02494 2.68801 3.02494 3.53742L3 6H21L20.9615 3.53742C20.9616 2.68801 20.2736 2 19.4241 2Z" fill="#C5C5C5"/>
<path d="M20.4491 5.07483H3.53742C2.68801 5.07483 2 5.76284 2 6.61228C2 6.68401 2.00514 6.75448 2.01409 6.82238L3 13H21L21.9724 6.82238C21.9814 6.75319 21.9865 6.68272 21.9865 6.61228C21.9865 5.76284 21.2985 5.07483 20.4491 5.07483Z" fill="#3367D6"/>
<path d="M10.4892 13.1643C11.0721 12.9234 11.8229 12.2828 11.8229 11.3181C11.8229 9.83194 10.8684 8.91846 9.2605 8.91846C7.82813 8.91846 6.67379 9.85628 6.6533 11.2246H7.69362C7.709 10.4251 8.24966 9.7679 9.25924 9.7679C10.2317 9.7679 10.78 10.274 10.78 11.2951C10.78 12.3162 9.99849 12.7877 9.04529 12.7877C8.67118 12.7877 8.31887 12.7877 8.31887 12.7877V13.6025C8.31887 13.6025 8.72116 13.6025 9.04529 13.6025C10.4469 13.6025 10.9081 14.3302 10.9081 15.1745C10.9081 16.2789 10.2368 16.7888 9.26438 16.7888C8.41752 16.7888 7.64624 16.3366 7.62317 15.3257H6.57516C6.62001 16.9541 7.99089 17.6318 9.26438 17.6318C10.7352 17.6318 11.9485 16.7747 11.9485 15.1515C11.951 13.842 11.0183 13.3193 10.4892 13.1643ZM16.4364 8.91846L13.4026 10.0075V10.9863L15.5806 10.2586V17.6305H16.6056V8.91846H16.4364Z" fill="#EEEEEE"/>
<path d="M16.862 4.53699C17.4143 4.53699 17.862 4.08927 17.862 3.53699C17.862 2.9847 17.4143 2.53699 16.862 2.53699C16.3097 2.53699 15.862 2.9847 15.862 3.53699C15.862 4.08927 16.3097 4.53699 16.862 4.53699Z" fill="white"/>
<path d="M7.125 4.53699C7.67728 4.53699 8.125 4.08927 8.125 3.53699C8.125 2.9847 7.67728 2.53699 7.125 2.53699C6.57272 2.53699 6.125 2.9847 6.125 3.53699C6.125 4.08927 6.57272 4.53699 7.125 4.53699Z" fill="white"/>
</svg>
