<svg viewBox="0 0 24 24" fill="none" xmlns="http://www.w3.org/2000/svg">
<mask id="mask0_29_854" style="mask-type:alpha" maskUnits="userSpaceOnUse" x="1" y="1" width="22" height="22">
<path d="M12 23C18.0751 23 23 18.0751 23 12C23 5.92487 18.0751 1 12 1C5.92487 1 1 5.92487 1 12C1 18.0751 5.92487 23 12 23Z" fill="white"/>
</mask>
<g mask="url(#mask0_29_854)">
<path d="M12 23C18.0751 23 23 18.0751 23 12C23 5.92487 18.0751 1 12 1C5.92487 1 1 5.92487 1 12C1 18.0751 5.92487 23 12 23Z" fill="#E8E8E8"/>
<path d="M2.75 1V14.531H7.687L12.025 7.014H23.051V1H2.75Z" fill="#DB4437"/>
<path d="M1 23.0509H11.495L16.367 18.1799V14.5309H7.684L1 3.06494V23.0509Z" fill="#0F9D58"/>
<path d="M12.025 7.01404L16.367 14.531L11.495 23.051H23.051V7.01404H12.025Z" fill="#FFCD40"/>
<path d="M12.025 7.01404L16.367 14.531L11.495 23.051H23.051V7.01404H12.025Z" fill="#FFCD40"/>
<path d="M12.025 17.0369C14.7931 17.0369 17.037 14.793 17.037 12.0249C17.037 9.25689 14.7931 7.01294 12.025 7.01294C9.25695 7.01294 7.013 9.25689 7.013 12.0249C7.013 14.793 9.25695 17.0369 12.025 17.0369Z" fill="white"/>
<path d="M12.025 16.034C14.2391 16.034 16.034 14.2391 16.034 12.025C16.034 9.81088 14.2391 8.01599 12.025 8.01599C9.81088 8.01599 8.01599 9.81088 8.01599 12.025C8.01599 14.2391 9.81088 16.034 12.025 16.034Z" fill="#4285F4"/>
</g>
</svg>
