<svg viewBox="0 0 24 24" xmlns="http://www.w3.org/2000/svg"><path fill-rule="evenodd" clip-rule="evenodd" d="M12.001 14.024a2.024 2.024 0 1 0 0-4.048 2.024 2.024 0 0 0 0 4.048Zm6.974 0a2.025 2.025 0 1 0 0-4.049 2.025 2.025 0 0 0 0 4.05ZM12.001 21a2.025 2.025 0 1 0 0-4.05 2.025 2.025 0 0 0 0 4.05Zm-6.976-6.976a2.024 2.024 0 1 0 0-4.049 2.024 2.024 0 0 0 0 4.05ZM12 7.05a2.024 2.024 0 1 0 0-4.049 2.024 2.024 0 0 0 0 4.049ZM5.026 21a2.025 2.025 0 1 0 0-4.05 2.025 2.025 0 0 0 0 4.05Zm13.948 0a2.025 2.025 0 1 0 0-4.05 2.025 2.025 0 0 0 0 4.05Z" fill="#1B6C75"/></svg>
