<svg viewBox="0 0 24 24" xmlns="http://www.w3.org/2000/svg"><path fill-rule="evenodd" clip-rule="evenodd" d="M14.025 11.999a2.024 2.024 0 1 0-4.048 0 2.024 2.024 0 0 0 4.048 0Zm0-6.974a2.024 2.024 0 1 0-4.049 0 2.024 2.024 0 0 0 4.049 0Zm0 13.95a2.025 2.025 0 1 0-4.05 0 2.025 2.025 0 0 0 4.05 0ZM7.05 12a2.024 2.024 0 1 0-4.049 0 2.024 2.024 0 0 0 4.049 0ZM21 18.975a2.025 2.025 0 1 0-4.05 0 2.025 2.025 0 0 0 4.05 0Zm0-13.948a2.024 2.024 0 1 0-4.048-.002A2.024 2.024 0 0 0 21 5.027Z" fill="#1B6C75"/></svg>
