<svg viewBox="0 0 24 24" xmlns="http://www.w3.org/2000/svg"><path fill-rule="evenodd" clip-rule="evenodd" d="M10.412 2.335c3.103-.507 5.946 2.408 4.783 5.564-.777 2.11-3.273 3.338-5.4 2.474-2.323-.944-4.856.168-6.143 2.35a.75.75 0 0 1-1.396-.382c0-4.807 3.321-9.209 8.156-10.006Zm.243 1.48c-3.354.56-5.788 3.05-6.602 6.185 1.715-1.382 4.037-1.934 6.296-1.021a2.683 2.683 0 0 0 3.439-1.598c.714-1.939-1.014-3.911-3.133-3.566Zm5.28-.102a.75.75 0 0 1 .97-.175c3.138 1.884 5.082 5.38 4.823 9.087-.072 1.036-.712 2.164-2.034 2.562-1.321.398-2.484-.194-3.107-1.128a3.07 3.07 0 0 1-.038-3.332c1.224-1.866.977-4.404-.572-6.028a.75.75 0 0 1-.043-.986Zm2.841 3.59a6.322 6.322 0 0 1-.97 4.242 1.539 1.539 0 0 0 .028 1.681c.309.463.823.707 1.427.525.624-.188.934-.704.971-1.23.131-1.881-.413-3.71-1.456-5.219Zm-12.653 4.53c1.177-.55 2.647-.677 3.775.042.81.516 1.25 1.28 1.583 1.936.073.144.14.281.205.412.252.512.456.928.763 1.283 1.75 2.024 4.802 2.167 6.843.437a.75.75 0 0 1 1.172.872c-1.252 2.871-4.654 4.66-8.018 4.862-3.411.206-7.043-1.203-8.692-5.032-.214-.496-.352-1.11-.215-1.744.31-1.441 1.393-2.512 2.584-3.068Zm.635 1.36c-.875.407-1.564 1.147-1.753 2.025-.05.231-.01.517.126.834 1.336 3.1 4.267 4.306 7.225 4.128 1.773-.107 3.465-.705 4.751-1.628-2.081.347-4.288-.324-5.793-2.065-.446-.517-.756-1.151-1.012-1.676a24.883 24.883 0 0 0-.159-.322c-.314-.62-.603-1.064-1.051-1.349-.553-.352-1.445-.363-2.334.052Z"/></svg>