<svg viewBox="0 0 24 24" fill="none" xmlns="http://www.w3.org/2000/svg">
<path fill-rule="evenodd" clip-rule="evenodd" d="M12.0026 14.2493C12.4476 14.2493 12.8826 14.1174 13.2526 13.8701C13.6225 13.6229 13.9109 13.2716 14.0812 12.8604C14.2515 12.4493 14.296 11.997 14.2092 11.5606C14.1224 11.1241 13.9081 10.7232 13.5935 10.4086C13.2788 10.094 12.878 9.87969 12.4415 9.79288C12.0051 9.70607 11.5527 9.75062 11.1416 9.92091C10.7305 10.0912 10.3792 10.3796 10.132 10.7495C9.88474 11.1195 9.75279 11.5545 9.75279 11.9995C9.75279 12.5962 9.98982 13.1684 10.4117 13.5903C10.8337 14.0123 11.4059 14.2493 12.0026 14.2493ZM19.7523 14.2493C20.1972 14.2493 20.6322 14.1174 21.0022 13.8701C21.3722 13.6229 21.6606 13.2716 21.8308 12.8604C22.0011 12.4493 22.0457 11.997 21.9589 11.5606C21.8721 11.1241 21.6578 10.7232 21.3431 10.4086C21.0285 10.094 20.6276 9.87969 20.1912 9.79288C19.7548 9.70607 19.3024 9.75062 18.8913 9.92091C18.4802 10.0912 18.1288 10.3796 17.8816 10.7495C17.6344 11.1195 17.5024 11.5545 17.5024 11.9995C17.5024 12.5962 17.7395 13.1684 18.1614 13.5903C18.5833 14.0123 19.1556 14.2493 19.7523 14.2493ZM12.0026 22C12.4476 22 12.8826 21.8681 13.2526 21.6208C13.6225 21.3736 13.9109 21.0222 14.0812 20.6111C14.2515 20.2 14.296 19.7477 14.2092 19.3112C14.1224 18.8748 13.9081 18.4739 13.5935 18.1593C13.2788 17.8447 12.878 17.6304 12.4415 17.5436C12.0051 17.4568 11.5527 17.5013 11.1416 17.6716C10.7305 17.8419 10.3792 18.1302 10.132 18.5002C9.88474 18.8702 9.75279 19.3052 9.75279 19.7502C9.75279 20.3469 9.98982 20.9191 10.4117 21.341C10.8337 21.763 11.4059 22 12.0026 22V22ZM4.24983 14.2493C4.6948 14.2493 5.12978 14.1174 5.49977 13.8701C5.86975 13.6229 6.15812 13.2716 6.3284 12.8604C6.49868 12.4493 6.54324 11.997 6.45643 11.5606C6.36962 11.1241 6.15534 10.7232 5.8407 10.4086C5.52606 10.094 5.12517 9.87969 4.68875 9.79288C4.25232 9.70607 3.79996 9.75062 3.38886 9.92091C2.97775 10.0912 2.62638 10.3796 2.37917 10.7495C2.13195 11.1195 2 11.5545 2 11.9995C2 12.295 2.05823 12.5877 2.17136 12.8607C2.28449 13.1337 2.4503 13.3818 2.65933 13.5907C2.86836 13.7996 3.1165 13.9653 3.38958 14.0783C3.66267 14.1914 3.95534 14.2494 4.25088 14.2493H4.24983ZM12.0026 6.49966C12.4476 6.49966 12.8826 6.36771 13.2526 6.1205C13.6225 5.87328 13.9109 5.52191 14.0812 5.1108C14.2515 4.6997 14.296 4.24733 14.2092 3.81091C14.1224 3.37448 13.9081 2.97361 13.5935 2.65896C13.2788 2.34432 12.878 2.13004 12.4415 2.04323C12.0051 1.95642 11.5527 2.00097 11.1416 2.17126C10.7305 2.34154 10.3792 2.62991 10.132 2.99989C9.88474 3.36988 9.75279 3.80486 9.75279 4.24983C9.75279 4.84652 9.98982 5.41878 10.4117 5.8407C10.8337 6.26263 11.4059 6.49966 12.0026 6.49966ZM4.25088 22C4.69585 22 5.13083 21.8681 5.50082 21.6208C5.8708 21.3736 6.15917 21.0222 6.32945 20.6111C6.49973 20.2 6.54429 19.7477 6.45748 19.3112C6.37067 18.8748 6.15639 18.4739 5.84175 18.1593C5.5271 17.8447 5.12622 17.6304 4.6898 17.5436C4.25337 17.4568 3.80101 17.5013 3.38991 17.6716C2.9788 17.8419 2.62743 18.1302 2.38021 18.5002C2.133 18.8702 2.00105 19.3052 2.00105 19.7502C2.00105 20.3469 2.23808 20.9191 2.66001 21.341C3.08193 21.763 3.65419 22 4.25088 22V22ZM19.7502 22C20.1951 22 20.6301 21.8681 21.0001 21.6208C21.3701 21.3736 21.6585 21.0222 21.8287 20.6111C21.999 20.2 22.0436 19.7477 21.9568 19.3112C21.87 18.8748 21.6557 18.4739 21.341 18.1593C21.0264 17.8447 20.6255 17.6304 20.1891 17.5436C19.7527 17.4568 19.3003 17.5013 18.8892 17.6716C18.4781 17.8419 18.1267 18.1302 17.8795 18.5002C17.6323 18.8702 17.5003 19.3052 17.5003 19.7502C17.5003 20.3469 17.7374 20.9191 18.1593 21.341C18.5812 21.763 19.1535 22 19.7502 22V22Z" fill="#1B6C75"/>
</svg>
