<svg viewBox="0 0 24 24" fill="none" xmlns="http://www.w3.org/2000/svg">
<path fill-rule="evenodd" clip-rule="evenodd" d="M14.2499 12C14.2499 11.555 14.118 11.12 13.8708 10.75C13.6235 10.38 13.2721 10.0916 12.861 9.92133C12.4499 9.75104 11.9975 9.70648 11.5611 9.7933C11.1246 9.88011 10.7237 10.0944 10.409 10.4091C10.0944 10.7237 9.8801 11.1246 9.79329 11.5611C9.70647 11.9975 9.75103 12.4499 9.92132 12.861C10.0916 13.2722 10.38 13.6236 10.75 13.8708C11.12 14.118 11.555 14.25 12 14.25C12.5967 14.25 13.169 14.0129 13.591 13.591C14.0129 13.169 14.2499 12.5967 14.2499 12ZM14.2499 4.24995C14.2499 3.80495 14.118 3.36995 13.8708 2.99995C13.6235 2.62994 13.2721 2.34156 12.861 2.17127C12.4499 2.00098 11.9975 1.95642 11.5611 2.04323C11.1246 2.13005 10.7237 2.34433 10.409 2.659C10.0944 2.97366 9.8801 3.37456 9.79329 3.81101C9.70647 4.24746 9.75103 4.69985 9.92132 5.11097C10.0916 5.52209 10.38 5.87349 10.75 6.12072C11.12 6.36794 11.555 6.4999 12 6.4999C12.5967 6.4999 13.169 6.26285 13.591 5.84091C14.0129 5.41896 14.2499 4.84668 14.2499 4.24995ZM14.2499 19.7532C14.2499 19.3082 14.118 18.8732 13.8708 18.5032C13.6235 18.1332 13.2721 17.8448 12.861 17.6745C12.4499 17.5042 11.9975 17.4597 11.5611 17.5465C11.1246 17.6333 10.7237 17.8476 10.409 18.1623C10.0944 18.4769 9.8801 18.8778 9.79329 19.3143C9.70647 19.7507 9.75103 20.2031 9.92132 20.6142C10.0916 21.0254 10.38 21.3768 10.75 21.624C11.12 21.8712 11.555 22.0032 12 22.0032C12.5967 22.0032 13.169 21.7661 13.591 21.3442C14.0129 20.9222 14.2499 20.3499 14.2499 19.7532ZM6.4999 12C6.4999 11.5551 6.36797 11.1201 6.12078 10.7501C5.8736 10.3801 5.52227 10.0918 5.11121 9.92143C4.70014 9.75111 4.24781 9.70649 3.81139 9.79322C3.37497 9.87995 2.97407 10.0941 2.65937 10.4087C2.34466 10.7232 2.13029 11.1241 2.04336 11.5604C1.95643 11.9968 2.00083 12.4492 2.17097 12.8603C2.3411 13.2715 2.62932 13.6229 2.99918 13.8703C3.36905 14.1176 3.80395 14.2498 4.2489 14.25V14.25C4.54446 14.2501 4.83714 14.192 5.11024 14.079C5.38334 13.966 5.63149 13.8003 5.84053 13.5913C6.04957 13.3824 6.21539 13.1343 6.32853 12.8613C6.44166 12.5882 6.4999 12.2956 6.4999 12V12ZM22 19.7532C22 19.3082 21.868 18.8732 21.6208 18.5032C21.3736 18.1332 21.0222 17.8448 20.6111 17.6745C20.1999 17.5042 19.7476 17.4597 19.3111 17.5465C18.8747 17.6333 18.4738 17.8476 18.1591 18.1623C17.8444 18.4769 17.6302 18.8778 17.5433 19.3143C17.4565 19.7507 17.5011 20.2031 17.6714 20.6142C17.8417 21.0254 18.13 21.3768 18.5 21.624C18.8701 21.8712 19.3051 22.0032 19.7501 22.0032C20.3468 22.0032 20.9191 21.7661 21.341 21.3442C21.763 20.9222 22 20.3499 22 19.7532V19.7532ZM22 4.2531C22.0002 3.80806 21.8684 3.37295 21.6213 3.00281C21.3742 2.63267 21.0229 2.34412 20.6118 2.17367C20.2007 2.00321 19.7483 1.95851 19.3118 2.0452C18.8752 2.1319 18.4742 2.3461 18.1595 2.66072C17.8447 2.97534 17.6303 3.37624 17.5434 3.81272C17.4565 4.2492 17.501 4.70164 17.6713 5.11283C17.8415 5.52401 18.1299 5.87547 18.4999 6.12274C18.87 6.37002 19.305 6.502 19.7501 6.502C20.3466 6.502 20.9187 6.26509 21.3406 5.84337C21.7626 5.42165 21.9997 4.84964 22 4.2531Z" fill="#1B6C75"/>
</svg>
