<svg viewBox="0 0 24 24" fill="none" xmlns="http://www.w3.org/2000/svg">
<path fill-rule="evenodd" clip-rule="evenodd" d="M11.999 14.2492C12.444 14.2492 12.8791 14.1172 13.2491 13.87C13.6192 13.6227 13.9076 13.2713 14.0779 12.8601C14.2482 12.4489 14.2928 11.9965 14.206 11.5599C14.1191 11.1234 13.9048 10.7225 13.5901 10.4078C13.2754 10.0931 12.8745 9.87876 12.438 9.79193C12.0014 9.7051 11.549 9.74967 11.1378 9.91998C10.7266 10.0903 10.3752 10.3787 10.1279 10.7488C9.88067 11.1188 9.74869 11.5539 9.74869 11.999C9.74869 12.5958 9.98577 13.1681 10.4078 13.5901C10.8298 14.0121 11.4021 14.2492 11.999 14.2492V14.2492ZM4.25026 21.9979C4.69537 21.9979 5.13047 21.8659 5.50055 21.6186C5.87063 21.3713 6.15905 21.0198 6.32933 20.6085C6.49962 20.1973 6.54412 19.7448 6.45721 19.3083C6.3703 18.8717 6.15588 18.4708 5.84107 18.1561C5.52626 17.8414 5.1252 17.6272 4.68862 17.5405C4.25205 17.4538 3.79956 17.4985 3.3884 17.669C2.97724 17.8395 2.62586 18.128 2.37873 18.4982C2.13159 18.8684 1.99979 19.3036 2 19.7487C1.99972 20.3448 2.23596 20.9166 2.65686 21.3387C3.07777 21.7608 3.64895 21.9986 4.24503 22L4.25026 21.9979ZM11.999 21.9979C12.4441 21.9979 12.8792 21.8659 13.2492 21.6186C13.6193 21.3713 13.9077 21.0198 14.078 20.6085C14.2483 20.1973 14.2928 19.7448 14.2059 19.3083C14.119 18.8717 13.9046 18.4708 13.5898 18.1561C13.2749 17.8414 12.8739 17.6272 12.4373 17.5405C12.0007 17.4538 11.5483 17.4985 11.1371 17.669C10.7259 17.8395 10.3746 18.128 10.1274 18.4982C9.88028 18.8684 9.74848 19.3036 9.74869 19.7487C9.74897 20.3453 9.98617 20.9174 10.4081 21.3392C10.8301 21.761 11.4023 21.9979 11.999 21.9979V21.9979ZM19.7476 14.2492C20.1927 14.2492 20.6278 14.1172 20.9978 13.87C21.3679 13.6227 21.6563 13.2713 21.8266 12.8601C21.9969 12.4489 22.0415 11.9965 21.9547 11.5599C21.8678 11.1234 21.6535 10.7225 21.3388 10.4078C21.0241 10.0931 20.6232 9.87876 20.1866 9.79193C19.7501 9.7051 19.2977 9.74967 18.8865 9.91998C18.4753 10.0903 18.1239 10.3787 17.8766 10.7488C17.6294 11.1188 17.4974 11.5539 17.4974 11.999C17.4974 12.5958 17.7345 13.1681 18.1565 13.5901C18.5785 14.0121 19.1508 14.2492 19.7476 14.2492V14.2492ZM19.7476 21.9979C20.1927 21.9979 20.6279 21.8659 20.9979 21.6186C21.368 21.3713 21.6564 21.0198 21.8267 20.6085C21.997 20.1973 22.0415 19.7448 21.9546 19.3083C21.8677 18.8717 21.6533 18.4708 21.3384 18.1561C21.0236 17.8414 20.6226 17.6272 20.186 17.5405C19.7494 17.4538 19.2969 17.4985 18.8858 17.669C18.4746 17.8395 18.1232 18.128 17.8761 18.4982C17.629 18.8684 17.4972 19.3036 17.4974 19.7487C17.4977 20.3453 17.7349 20.9174 18.1568 21.3392C18.5788 21.761 19.151 21.9979 19.7476 21.9979V21.9979ZM19.7476 6.50052C20.1927 6.50052 20.6278 6.36855 20.9978 6.12129C21.3679 5.87402 21.6563 5.52258 21.8266 5.1114C21.9969 4.70022 22.0415 4.24777 21.9547 3.81126C21.8678 3.37475 21.6535 2.97379 21.3388 2.65909C21.0241 2.34438 20.6232 2.13007 20.1866 2.04324C19.7501 1.95641 19.2977 2.00097 18.8865 2.17129C18.4753 2.34161 18.1239 2.63003 17.8766 3.00009C17.6294 3.37014 17.4974 3.8052 17.4974 4.25026C17.4974 4.54577 17.5556 4.83839 17.6687 5.1114C17.7818 5.38441 17.9475 5.63248 18.1565 5.84144C18.3654 6.05039 18.6135 6.21615 18.8865 6.32923C19.1595 6.44232 19.4521 6.50052 19.7476 6.50052V6.50052Z" fill="#1B6C75"/>
</svg>
