<svg viewBox="0 0 24 24" fill="none" xmlns="http://www.w3.org/2000/svg">
<path fill-rule="evenodd" clip-rule="evenodd" d="M4.24893 14.25C4.69398 14.2502 5.12909 14.1184 5.49923 13.8713C5.86938 13.6242 6.15792 13.2729 6.32838 12.8618C6.49883 12.4506 6.54354 11.9982 6.45684 11.5617C6.37015 11.1252 6.15594 10.7242 5.84132 10.4094C5.52669 10.0946 5.12579 9.88024 4.68931 9.79334C4.25283 9.70644 3.80038 9.75093 3.38919 9.9212C2.978 10.0915 2.62654 10.3798 2.37926 10.7499C2.13199 11.1199 2 11.555 2 12C1.99986 12.2954 2.05793 12.588 2.17089 12.861C2.28385 13.1339 2.44948 13.382 2.65833 13.5909C2.86717 13.7999 3.11514 13.9656 3.38806 14.0787C3.66098 14.1918 3.95351 14.25 4.24893 14.25ZM11.999 14.25C12.444 14.25 12.879 14.118 13.249 13.8708C13.619 13.6236 13.9074 13.2722 14.0777 12.861C14.248 12.4499 14.2925 11.9975 14.2057 11.5611C14.1189 11.1246 13.9046 10.7237 13.5899 10.409C13.2753 10.0944 12.8744 9.88007 12.4379 9.79326C12.0015 9.70644 11.5491 9.751 11.1379 9.9213C10.7268 10.0916 10.3754 10.38 10.1282 10.75C9.88094 11.12 9.74898 11.555 9.74898 12C9.74898 12.5967 9.98603 13.169 10.408 13.591C10.8299 14.0129 11.4022 14.25 11.999 14.25V14.25V14.25ZM11.999 22C12.444 22 12.879 21.868 13.249 21.6208C13.619 21.3736 13.9074 21.0222 14.0777 20.6111C14.248 20.1999 14.2925 19.7475 14.2057 19.3111C14.1189 18.8746 13.9046 18.4737 13.5899 18.1591C13.2753 17.8444 12.8744 17.6301 12.4379 17.5433C12.0015 17.4565 11.5491 17.501 11.1379 17.6713C10.7268 17.8416 10.3754 18.13 10.1282 18.5C9.88094 18.87 9.74898 19.305 9.74898 19.75C9.74898 20.3468 9.98603 20.919 10.408 21.341C10.8299 21.763 11.4022 22 11.999 22V22ZM19.75 14.25C20.195 14.25 20.63 14.118 21 13.8708C21.3701 13.6236 21.6584 13.2722 21.8287 12.861C21.999 12.4499 22.0436 11.9975 21.9568 11.5611C21.87 11.1246 21.6557 10.7237 21.341 10.409C21.0263 10.0944 20.6254 9.88007 20.189 9.79326C19.7525 9.70644 19.3001 9.751 18.889 9.9213C18.4779 10.0916 18.1265 10.38 17.8792 10.75C17.632 11.12 17.5001 11.555 17.5001 12C17.4999 12.2955 17.558 12.5882 17.671 12.8612C17.7841 13.1342 17.9498 13.3823 18.1588 13.5913C18.3677 13.8002 18.6158 13.966 18.8888 14.079C19.1619 14.192 19.4545 14.2501 19.75 14.25V14.25ZM12.001 6.49995C12.4461 6.50016 12.8813 6.36835 13.2515 6.1212C13.6216 5.87405 13.9102 5.52266 14.0806 5.11149C14.251 4.70031 14.2957 4.24783 14.2089 3.81128C14.1221 3.37474 13.9078 2.97373 13.5931 2.659C13.2783 2.34428 12.8773 2.12996 12.4408 2.04318C12.0042 1.9564 11.5518 2.00105 11.1406 2.17147C10.7294 2.3419 10.378 2.63044 10.1309 3.00061C9.88372 3.37078 9.75191 3.80593 9.75212 4.25102V4.25102C9.75212 4.84747 9.98906 5.4195 10.4108 5.84125C10.8326 6.26301 11.4046 6.49995 12.001 6.49995V6.49995Z" fill="#1B6C75"/>
</svg>
