<svg viewBox="0 0 24 24" fill="none" xmlns="http://www.w3.org/2000/svg">
<path d="M14.5933 6.77683C13.9168 6.74567 13.7133 6.74017 12 6.74017C10.2868 6.74017 10.0842 6.74658 9.40767 6.77683C7.66692 6.85658 6.85658 7.68067 6.77683 9.40767C6.74658 10.0842 6.73925 10.2868 6.73925 12C6.73925 13.7133 6.74658 13.9158 6.77683 14.5933C6.85658 16.3157 7.66325 17.1443 9.40767 17.2241C10.0832 17.2543 10.2868 17.2617 12 17.2617C13.7142 17.2617 13.9168 17.2552 14.5933 17.2241C16.334 17.1452 17.1434 16.3184 17.2241 14.5933C17.2543 13.9168 17.2608 13.7133 17.2608 12C17.2608 10.2868 17.2543 10.0842 17.2241 9.40767C17.1434 7.68158 16.3322 6.85658 14.5933 6.77683V6.77683ZM12 15.2954C10.1804 15.2954 8.70458 13.8205 8.70458 12C8.70458 10.1804 10.1804 8.7055 12 8.7055C13.8196 8.7055 15.2954 10.1804 15.2954 12C15.2954 13.8196 13.8196 15.2954 12 15.2954ZM15.4256 9.34533C15.0003 9.34533 14.6556 9.00067 14.6556 8.57533C14.6556 8.15 15.0003 7.80533 15.4256 7.80533C15.8509 7.80533 16.1956 8.15 16.1956 8.57533C16.1956 8.99975 15.8509 9.34533 15.4256 9.34533V9.34533ZM14.1386 12C14.1386 13.1816 13.1807 14.1386 12 14.1386C10.8193 14.1386 9.86142 13.1816 9.86142 12C9.86142 10.8184 10.8193 9.86142 12 9.86142C13.1807 9.86142 14.1386 10.8184 14.1386 12ZM12 1C5.92525 1 1 5.92525 1 12C1 18.0747 5.92525 23 12 23C18.0747 23 23 18.0747 23 12C23 5.92525 18.0747 1 12 1ZM18.3782 14.6455C18.2728 16.9784 16.9738 18.2709 14.6464 18.3782C13.9617 18.4093 13.7426 18.4167 12 18.4167C10.2574 18.4167 10.0393 18.4093 9.3545 18.3782C7.0225 18.2709 5.72908 16.9766 5.62183 14.6455C5.59067 13.9617 5.58333 13.7426 5.58333 12C5.58333 10.2574 5.59067 10.0393 5.62183 9.3545C5.72908 7.0225 7.02342 5.72908 9.3545 5.62275C10.0393 5.59067 10.2574 5.58333 12 5.58333C13.7426 5.58333 13.9617 5.59067 14.6464 5.62275C16.9793 5.73 18.2737 7.02708 18.3782 9.3545C18.4093 10.0393 18.4167 10.2574 18.4167 12C18.4167 13.7426 18.4093 13.9617 18.3782 14.6455Z" fill="#C32AA3"/>
</svg>
