<svg width="20" height="20" viewBox="0 0 20 20" fill="none" xmlns="http://www.w3.org/2000/svg">
<path fill-rule="evenodd" clip-rule="evenodd" d="M10 0C15.5228 0 20 4.47715 20 10C20 15.5228 15.5228 20 10 20C4.47715 20 0 15.5228 0 10C0 4.47715 4.47715 0 10 0ZM15.0244 5.60806C14.8498 5.08411 14.2834 4.80095 13.7595 4.9756L7.64591 7.01346C7.34731 7.11299 7.11299 7.34731 7.01346 7.64591L4.9756 13.7595C4.90718 13.9648 4.90718 14.1867 4.9756 14.3919C5.15025 14.9159 5.71657 15.199 6.24051 15.0244L12.3541 12.9865C12.6527 12.887 12.887 12.6527 12.9865 12.3541L15.0244 6.24051C15.0928 6.03524 15.0928 5.81332 15.0244 5.60806Z" fill="black"/>
</svg>
