<svg viewBox="0 0 24 24" fill="none" xmlns="http://www.w3.org/2000/svg">
<path d="M12 1C5.92525 1 1 5.92525 1 12C1 18.0747 5.92525 23 12 23C18.0747 23 23 18.0747 23 12C23 5.92525 18.0747 1 12 1ZM10.1667 15.6667H8.33333V10.1667H10.1667V15.6667ZM9.25 9.34992C8.69358 9.34992 8.24167 8.89525 8.24167 8.33333C8.24167 7.77233 8.69267 7.31675 9.25 7.31675C9.80733 7.31675 10.2583 7.77233 10.2583 8.33333C10.2583 8.89525 9.80642 9.34992 9.25 9.34992ZM16.5833 15.6667H14.7518V13.0441C14.7518 11.3198 12.9167 11.4656 12.9167 13.0441V15.6667H11.0833V10.1667H12.9167V11.1686C13.716 9.68725 16.5833 9.57725 16.5833 12.5876V15.6667Z" fill="#0A66C2"/>
</svg>
