<svg viewBox="0 0 24 24" fill="none" xmlns="http://www.w3.org/2000/svg">
<path d="M7.83313 3H21.1669C21.627 3 22 3.373 22 3.83312V19.6669C22 20.127 21.627 20.5 21.1669 20.5H7.83313C7.373 20.5 7 20.127 7 19.6669V3.83312C7 3.373 7.373 3 7.83313 3Z" fill="#CA64EA"/>
<path d="M22 3.83312C22 3.373 21.627 3 21.1669 3H7.8325C7.37262 3.00034 7 3.37325 7 3.83312V19.6669C7 20.127 7.373 20.5 7.83313 20.5H17.625L22 7.375V3.83312Z" fill="#CA64EA"/>
<path d="M22 7.375H17.625V11.75L19.813 13.747L22 11.75V7.375Z" fill="#AE4BD5"/>
<path d="M22 11.75H17.625V16.125L19.813 18.247L22 16.125V11.75Z" fill="#9332BF"/>
<path d="M17.625 16.125H22V19.6669C22 20.127 21.627 20.5 21.1669 20.5H17.625V16.125ZM2.83312 6.75H11.1669C11.627 6.75 12 7.123 12 7.58313V15.9169C12 16.377 11.627 16.75 11.1669 16.75H2.83312C2.373 16.75 2 16.377 2 15.9169V7.58313C2 7.123 2.373 6.75 2.83312 6.75Z" fill="#7719AA"/>
<path d="M4.50062 8.625H5.83188L8.11688 12.8325C8.23604 13.0138 8.32562 13.1596 8.38562 13.27H8.40188C8.37005 12.995 8.35752 12.718 8.36438 12.4412V8.625H9.49937V14.875H8.25313L5.87 10.7312C5.7783 10.5948 5.69723 10.4514 5.6275 10.3025H5.60625C5.63393 10.605 5.6454 10.9088 5.64062 11.2125V14.875H4.5L4.50062 8.625Z" fill="white"/>
</svg>
