<svg viewBox="0 0 24 24" fill="none" xmlns="http://www.w3.org/2000/svg">
<path d="M14 12H7L7.07937 19.6137C7.07937 20.0813 7.45048 20.4603 7.90827 20.4603H21.1711C21.6289 20.4603 22 20.0813 22 19.6137V16.0159L14 12Z" fill="#185C37"/>
<path d="M14.5397 3H7.90827C7.45048 3 7.07937 3.37829 7.07937 3.84493V7.43596L7 12H22V7.43596L14.5397 3Z" fill="#21A366"/>
<path d="M7 11.984L22 12V16.016L7 16V11.984Z" fill="#107C41"/>
<path d="M2.83333 6H11.1667C11.6269 6 12 6.41042 12 6.91667V16.0833C12 16.5896 11.6269 17 11.1667 17H2.83333C2.61232 17 2.40035 16.9034 2.24407 16.7315C2.08779 16.5596 2 16.3264 2 16.0833V6.91666C2 6.4104 2.3731 6 2.83333 6Z" fill="#107C41"/>
<path d="M4 15L6.1733 11.4902L4.18267 8H5.78454L6.87119 10.2308C6.97107 10.4425 7.03977 10.6003 7.07728 10.7043H7.09134C7.16311 10.5352 7.23805 10.3709 7.31616 10.2113L8.47775 8H9.94848L7.90633 11.4707L10 15H8.4356L7.18033 12.5495C7.12118 12.4453 7.07102 12.3359 7.03044 12.2225H7.01171C6.97505 12.3336 6.92634 12.4401 6.86651 12.5397L5.57377 15H4Z" fill="white"/>
<path d="M21.1534 3H14.381V7.44444H22V3.84655C22 3.62202 21.9108 3.4067 21.752 3.24794C21.5933 3.08918 21.3779 3 21.1534 3Z" fill="#33C481"/>
</svg>
