<svg viewBox="0 0 24 24" fill="none" xmlns="http://www.w3.org/2000/svg">
<path d="M21.1667 3H7.83329C7.37308 3 7 3.36955 7 3.82538V7.33333L14.5 9.5L22 7.33333V3.82538C22 3.60647 21.9122 3.39653 21.7559 3.24174C21.5996 3.08695 21.3877 3 21.1667 3Z" fill="#41A5EE"/>
<path d="M7 7.25V11.583L14.5 13.75L22 12V7.25H7Z" fill="#2B7CD3"/>
<path d="M22 11.75H7V16.083L14.5 18.25L22 16.083V11.75Z" fill="#185ABD"/>
<path d="M22 16H7V19.4405C7 19.8876 7.3731 20.25 7.83334 20.25H21.1667C21.6269 20.25 22 19.8876 22 19.4405V16Z" fill="#103F91"/>
<path d="M2.83331 6H11.1667C11.3877 6 11.5996 6.09657 11.7559 6.26848C11.9122 6.44039 12 6.67355 12 6.91666V16.0833C12 16.3264 11.9122 16.5596 11.7559 16.7315C11.5996 16.9034 11.3877 17 11.1667 17H2.83331C2.37308 17 2 16.5896 2 16.0833V6.91666C2 6.41042 2.37308 6 2.83331 6Z" fill="#185ABD"/>
<path d="M9.655 15H8.445L7.034 10.17L5.555 15H4.345L3 8H4.21L5.151 12.9L6.563 8.14H7.571L8.916 12.9L9.857 8H11L9.655 15Z" fill="white"/>
</svg>
