<svg viewBox="0 0 24 24" fill="none" xmlns="http://www.w3.org/2000/svg">
<path d="M21.1323 8.8787C20.7005 7.83972 19.8246 6.71793 19.1387 6.36331C19.6279 7.31078 19.9674 8.32831 20.1451 9.37972L20.1469 9.39639C19.0233 6.59511 17.1179 5.46562 15.5618 3.00613C15.4831 2.88177 15.4044 2.75716 15.3277 2.62562C15.2838 2.55049 15.2487 2.4828 15.2182 2.42049C15.1537 2.2955 15.1039 2.16342 15.07 2.0269C15.0701 2.01386 15.0604 2.00282 15.0474 2.00126C15.0413 1.99958 15.0348 1.99958 15.0287 2.00126C15.0274 2.00126 15.0254 2.00357 15.0238 2.00408C15.0223 2.00459 15.019 2.0069 15.0167 2.00793L15.0205 2.00126C12.5244 3.4628 11.6774 6.16844 11.5995 7.52177C10.6026 7.59029 9.64958 7.95763 8.86462 8.57588C8.78272 8.50651 8.69712 8.44162 8.60821 8.38152C8.38177 7.58894 8.37212 6.75012 8.58026 5.95254C7.66357 6.39663 6.84904 7.02614 6.18821 7.80126H6.18359C5.78974 7.30203 5.81744 5.65588 5.84 5.31203C5.72349 5.35886 5.61227 5.4179 5.50821 5.48818C5.16052 5.73633 4.83549 6.01476 4.53692 6.32023C4.19669 6.66519 3.88595 7.03803 3.60795 7.43485V7.43639V7.43459C2.96904 8.34038 2.51587 9.36375 2.27462 10.4456L2.26128 10.5113C2.24256 10.5987 2.17513 11.0366 2.16359 11.1318C2.16359 11.1392 2.16205 11.1461 2.16128 11.1536C2.07429 11.6057 2.02039 12.0636 2 12.5236V12.5749C2.00452 17.7333 5.95499 22.0308 11.0948 22.4685C16.2347 22.9063 20.855 19.3388 21.7318 14.2554C21.7485 14.1272 21.7621 14.0002 21.7769 13.8707C21.9816 12.179 21.76 10.4629 21.1323 8.8787Z" fill="url(#paint0_linear_29_857)"/>
<path d="M11.9551 10.6638C11.9387 10.911 11.0654 11.7635 10.76 11.7635C7.93409 11.7635 7.47537 13.473 7.47537 13.473C7.6005 14.9125 8.60358 16.0981 9.81614 16.7253C9.87153 16.754 9.92768 16.7799 9.98383 16.8053C10.0811 16.8484 10.1784 16.8882 10.2756 16.9248C10.6918 17.0721 11.1276 17.1562 11.5687 17.1743C16.5218 17.4066 17.4813 11.2512 13.9069 9.46505C14.7501 9.35534 15.604 9.56267 16.3031 10.0468C15.4142 8.47817 13.7517 7.50733 11.9487 7.50403C11.8308 7.50403 11.7154 7.51377 11.5995 7.52172C10.6026 7.59024 9.64957 7.95758 8.8646 8.57582C9.01614 8.70403 9.18717 8.87531 9.54742 9.23044C10.2218 9.8948 11.9513 10.583 11.9551 10.6638Z" fill="#7B23BA"/>
<path d="M8.40127 8.24534C8.48179 8.29662 8.5482 8.34123 8.6064 8.38149C8.37996 7.58891 8.37031 6.75009 8.57845 5.95251C7.66177 6.3966 6.84724 7.02611 6.1864 7.80123C6.23486 7.79995 7.6764 7.77405 8.40127 8.24534Z" fill="url(#paint1_radial_29_857)"/>
<path d="M2.09078 12.81C2.8577 17.3418 6.96488 20.8018 11.6277 20.9338C15.9431 21.0559 18.7 18.5507 19.839 16.1069C20.8034 13.9947 20.9142 11.5916 20.1482 9.3997V9.39022C20.1482 9.38278 20.1467 9.37842 20.1482 9.38073L20.15 9.3974C20.5026 11.6992 19.3318 13.9292 17.5016 15.4371L17.4959 15.45C13.9298 18.3543 10.5169 17.2023 9.82617 16.732C9.77796 16.7089 9.72976 16.6849 9.68155 16.66C7.60232 15.6661 6.74335 13.7718 6.92745 12.1471C5.9191 12.162 4.99656 11.5817 4.57335 10.6664C5.68315 9.98647 7.06621 9.93095 8.22694 10.5197C9.40382 11.054 10.743 11.1066 11.9582 10.6664C11.9544 10.5856 10.2249 9.89714 9.55053 9.23304C9.19027 8.87791 9.01924 8.70688 8.8677 8.57842C8.78581 8.50905 8.70021 8.44417 8.61129 8.38406C8.55232 8.34381 8.48591 8.30022 8.40617 8.24791C7.68129 7.77663 6.23976 7.80252 6.19206 7.80381H6.18745C5.7936 7.30458 5.82129 5.65842 5.84386 5.31458C5.72735 5.3614 5.61613 5.42045 5.51206 5.49073C5.16438 5.73887 4.83935 6.01731 4.54078 6.32278C4.19933 6.66676 3.8873 7.03875 3.60796 7.43483V7.43637V7.43458C2.96905 8.34036 2.51588 9.36373 2.27463 10.4456C2.26976 10.4659 1.91668 12.0094 2.09078 12.81Z" fill="url(#paint2_radial_29_857)"/>
<path d="M15.4423 8.88844C15.8051 9.24477 16.1159 9.65047 16.3654 10.0936C16.42 10.1348 16.471 10.1759 16.5144 10.2156C18.7674 12.2925 17.5869 15.2284 17.499 15.4374C19.3292 13.9295 20.499 11.6995 20.1474 9.39767C19.0233 6.59511 17.118 5.46562 15.5618 3.00613C15.4831 2.88177 15.4044 2.75716 15.3277 2.62562C15.2839 2.55049 15.2487 2.4828 15.2182 2.42049C15.1537 2.2955 15.1039 2.16342 15.07 2.0269C15.0701 2.01386 15.0604 2.00282 15.0474 2.00126C15.0413 1.99958 15.0349 1.99958 15.0287 2.00126C15.0274 2.00126 15.0254 2.00357 15.0239 2.00408C15.0223 2.00459 15.019 2.0069 15.0167 2.00793C14.6323 2.19023 12.3531 5.79921 15.4423 8.88844Z" fill="url(#paint3_radial_29_857)"/>
<path d="M16.5128 10.2143C16.4695 10.1746 16.4185 10.1336 16.3638 10.0923C16.3436 10.0771 16.3236 10.062 16.302 10.0469C15.603 9.56271 14.7491 9.35537 13.9059 9.46509C17.4803 11.2523 16.5213 17.4066 11.5677 17.1743C11.1266 17.1562 10.6908 17.0721 10.2746 16.9248C10.1773 16.8884 10.0801 16.8486 9.98282 16.8053C9.92666 16.7797 9.87051 16.7541 9.81512 16.7253L9.82205 16.7297C10.5128 17.2012 13.9246 18.3533 17.4918 15.4477L17.4974 15.4348C17.5864 15.2271 18.7669 12.2905 16.5128 10.2143Z" fill="url(#paint4_radial_29_857)"/>
<path d="M7.47538 13.473C7.47538 13.473 7.9341 11.7635 10.76 11.7635C11.0654 11.7635 11.9395 10.911 11.9551 10.6638C10.7399 11.104 9.40073 11.0514 8.22384 10.5171C7.06311 9.92837 5.68005 9.98389 4.57025 10.6638C4.99346 11.5791 5.91601 12.1594 6.92435 12.1446C6.74025 13.7694 7.59923 15.6638 9.67846 16.6574C9.72487 16.6797 9.76846 16.7038 9.81615 16.7251C8.60256 16.0982 7.60051 14.9125 7.47538 13.473Z" fill="url(#paint5_radial_29_857)"/>
<path d="M21.1323 8.8787C20.7005 7.83972 19.8246 6.71793 19.1387 6.36331C19.6279 7.31078 19.9674 8.32831 20.1451 9.37972L20.1469 9.39639C19.0233 6.59511 17.1179 5.46562 15.5618 3.00613C15.4831 2.88177 15.4044 2.75716 15.3277 2.62562C15.2838 2.55049 15.2487 2.4828 15.2182 2.42049C15.1537 2.2955 15.1039 2.16342 15.07 2.0269C15.0701 2.01386 15.0604 2.00282 15.0474 2.00126C15.0413 1.99958 15.0348 1.99958 15.0287 2.00126C15.0274 2.00126 15.0254 2.00357 15.0238 2.00408C15.0223 2.00459 15.019 2.0069 15.0167 2.00793L15.0205 2.00126C12.5244 3.4628 11.6774 6.16844 11.5995 7.52177C11.7154 7.51382 11.8303 7.50408 11.9487 7.50408C13.7517 7.50738 15.4142 8.47823 16.3031 10.0469C15.6041 9.56272 14.7501 9.35539 13.9069 9.46511C17.4813 11.2523 16.5223 17.4066 11.5687 17.1743C11.1277 17.1562 10.6918 17.0721 10.2756 16.9249C10.1784 16.8884 10.0811 16.8486 9.98385 16.8054C9.92769 16.7797 9.87154 16.7541 9.81615 16.7254L9.82308 16.7297C9.77487 16.7066 9.72667 16.6826 9.67846 16.6577C9.72487 16.68 9.76846 16.7041 9.81615 16.7254C8.60256 16.0982 7.60051 14.9125 7.47538 13.4731C7.47538 13.4731 7.9341 11.7636 10.76 11.7636C11.0654 11.7636 11.9395 10.911 11.9551 10.6638C11.9513 10.5831 10.2218 9.89459 9.54744 9.23049C9.18718 8.87536 9.01615 8.70434 8.86462 8.57588C8.78272 8.50651 8.69712 8.44162 8.60821 8.38152C8.38177 7.58894 8.37212 6.75012 8.58026 5.95254C7.66357 6.39663 6.84904 7.02614 6.18821 7.80126H6.18359C5.78974 7.30203 5.81744 5.65588 5.84 5.31203C5.72349 5.35886 5.61227 5.4179 5.50821 5.48818C5.16052 5.73633 4.83549 6.01476 4.53692 6.32023C4.19669 6.66519 3.88595 7.03803 3.60795 7.43485V7.43639V7.43459C2.96904 8.34038 2.51587 9.36375 2.27462 10.4456L2.26128 10.5113C2.24256 10.5987 2.15872 11.0428 2.14667 11.1382C2.14667 11.1454 2.14667 11.1307 2.14667 11.1382C2.06998 11.5966 2.021 12.0592 2 12.5236V12.5749C2.00452 17.7333 5.95499 22.0308 11.0948 22.4685C16.2347 22.9063 20.855 19.3388 21.7318 14.2554C21.7485 14.1272 21.7621 14.0002 21.7769 13.8707C21.9816 12.179 21.76 10.4629 21.1323 8.8787Z" fill="url(#paint6_linear_29_857)"/>
<defs>
<linearGradient id="paint0_linear_29_857" x1="19.3217" y1="5.1766" x2="3.36067" y2="20.5759" gradientUnits="userSpaceOnUse">
<stop offset="0.048" stop-color="#FFF44F"/>
<stop offset="0.111" stop-color="#FFE847"/>
<stop offset="0.225" stop-color="#FFC830"/>
<stop offset="0.368" stop-color="#FF980E"/>
<stop offset="0.401" stop-color="#FF8B16"/>
<stop offset="0.462" stop-color="#FF672A"/>
<stop offset="0.534" stop-color="#FF3647"/>
<stop offset="0.705" stop-color="#E31587"/>
</linearGradient>
<radialGradient id="paint1_radial_29_857" cx="0" cy="0" r="1" gradientUnits="userSpaceOnUse" gradientTransform="translate(11.2228 3.41865) scale(7.09641)">
<stop stop-color="#FFE226"/>
<stop offset="0.121" stop-color="#FFDB27"/>
<stop offset="0.295" stop-color="#FFC82A"/>
<stop offset="0.502" stop-color="#FFA930"/>
<stop offset="0.732" stop-color="#FF7E37"/>
<stop offset="0.792" stop-color="#FF7139"/>
</radialGradient>
<radialGradient id="paint2_radial_29_857" cx="0" cy="0" r="1" gradientUnits="userSpaceOnUse" gradientTransform="translate(14.553 -1.07325) scale(30.2773 30.2771)">
<stop offset="0.113" stop-color="#FFF44F"/>
<stop offset="0.456" stop-color="#FF980E"/>
<stop offset="0.622" stop-color="#FF5634"/>
<stop offset="0.716" stop-color="#FF3647"/>
<stop offset="0.904" stop-color="#E31587"/>
</radialGradient>
<radialGradient id="paint3_radial_29_857" cx="0" cy="0" r="1" gradientUnits="userSpaceOnUse" gradientTransform="translate(4.62205 7.57153) rotate(77.4367) scale(10.7064 45.9941)">
<stop stop-color="#FFF44F"/>
<stop offset="0.06" stop-color="#FFE847"/>
<stop offset="0.168" stop-color="#FFC830"/>
<stop offset="0.304" stop-color="#FF980E"/>
<stop offset="0.356" stop-color="#FF8B16"/>
<stop offset="0.455" stop-color="#FF672A"/>
<stop offset="0.57" stop-color="#FF3647"/>
<stop offset="0.737" stop-color="#E31587"/>
</radialGradient>
<radialGradient id="paint4_radial_29_857" cx="0" cy="0" r="1" gradientUnits="userSpaceOnUse" gradientTransform="translate(10.8893 6.05641) scale(18.9027 18.9026)">
<stop offset="0.137" stop-color="#FFF44F"/>
<stop offset="0.48" stop-color="#FF980E"/>
<stop offset="0.592" stop-color="#FF5634"/>
<stop offset="0.655" stop-color="#FF3647"/>
<stop offset="0.904" stop-color="#E31587"/>
</radialGradient>
<radialGradient id="paint5_radial_29_857" cx="0" cy="0" r="1" gradientUnits="userSpaceOnUse" gradientTransform="translate(14.7401 7.16266) scale(20.6887)">
<stop offset="0.094" stop-color="#FFF44F"/>
<stop offset="0.231" stop-color="#FFE141"/>
<stop offset="0.509" stop-color="#FFAF1E"/>
<stop offset="0.626" stop-color="#FF980E"/>
</radialGradient>
<linearGradient id="paint6_linear_29_857" x1="19.1359" y1="5.09151" x2="5.53901" y2="18.6882" gradientUnits="userSpaceOnUse">
<stop offset="0.167" stop-color="#FFF44F" stop-opacity="0.8"/>
<stop offset="0.266" stop-color="#FFF44F" stop-opacity="0.634"/>
<stop offset="0.489" stop-color="#FFF44F" stop-opacity="0.217"/>
<stop offset="0.6" stop-color="#FFF44F" stop-opacity="0"/>
</linearGradient>
</defs>
</svg>
