<svg viewBox="0 0 24 24" fill="none" xmlns="http://www.w3.org/2000/svg"><path d="M21.1 8.9c-.4-1-1.3-2.2-2-2.5.5 1 .9 2 1 3-1-2.8-3-4-4.5-6.4a12.2 12.2 0 0 1-.4-.6l-.1-.4a7.3 7.3 0 0 0-3.5 5.5c-1 0-2 .5-2.7 1l-.3-.1c-.2-.8-.2-1.6 0-2.4-1 .4-1.8 1-2.4 1.8-.4-.5-.4-2.1-.4-2.5l-.3.2a7.2 7.2 0 0 0-1.9 2c-.6.8-1 1.9-1.3 3l-.1.6-.2 1.4a10 10 0 0 0 19.7 1.8v-.4c.3-1.7 0-3.4-.6-5Z" fill="url(#a)"/><path d="M12 10.7c0 .2-1 1-1.2 1-2.9 0-3.3 1.8-3.3 1.8a4.2 4.2 0 0 0 2.8 3.4c.4.2.8.3 1.3.3 5 .2 5.9-6 2.3-7.7.9-.1 1.7 0 2.4.5a5 5 0 0 0-4.4-2.5h-.3c-1 0-2 .5-2.7 1l.6.7c.7.7 2.5 1.4 2.5 1.5Z" fill="#7B23BA"/><path d="m8.4 8.2.2.2c-.2-.8-.2-1.6 0-2.4-1 .4-1.8 1-2.4 1.8 0 0 1.5 0 2.2.4Z" fill="url(#b)"/><path d="M2 12.8a10 10 0 0 0 9.6 8.1 8.5 8.5 0 0 0 8.5-11.5c.4 2.3-.8 4.5-2.6 6-3.6 3-7 1.8-7.7 1.3h-.1c-2.1-1-3-3-2.8-4.6-1 0-1.9-.5-2.3-1.4 1-.7 2.5-.8 3.6-.2a5 5 0 0 0 3.8.2c0-.1-1.8-.8-2.4-1.5l-.7-.6a3 3 0 0 0-.5-.4c-.7-.4-2.2-.4-2.2-.4-.4-.5-.4-2.1-.4-2.5l-.3.2a7.2 7.2 0 0 0-1.9 2 8.4 8.4 0 0 0-1.5 5.3Z" fill="url(#c)"/><path d="M15.4 8.9c.4.3.7.8 1 1.2l.1.1c2.3 2 1 5 1 5.2 1.8-1.5 3-3.7 2.6-6-1-2.8-3-4-4.5-6.4a12.2 12.2 0 0 1-.4-.6l-.1-.4c-.5.2-2.7 3.8.3 6.9Z" fill="url(#d)"/><path d="m16.5 10.2-.1-.1h-.1c-.7-.5-1.6-.7-2.4-.6 3.6 1.8 2.6 8-2.3 7.7a4.4 4.4 0 0 1-1.8-.5c.7.5 4.1 1.7 7.7-1.3 0-.2 1.3-3.1-1-5.2Z" fill="url(#e)"/><path d="M7.5 13.5s.4-1.7 3.3-1.7c.3 0 1.1-.9 1.2-1.1a5 5 0 0 1-3.8-.2 3.7 3.7 0 0 0-3.6.2c.4.9 1.3 1.5 2.3 1.4-.2 1.7.7 3.6 2.8 4.6h.1a4.2 4.2 0 0 1-2.3-3.2Z" fill="url(#f)"/><path d="M21.1 8.9c-.4-1-1.3-2.2-2-2.5.5 1 .9 2 1 3-1-2.8-3-4-4.5-6.4a12.2 12.2 0 0 1-.4-.6l-.1-.4a7.3 7.3 0 0 0-3.5 5.5h.3a5 5 0 0 1 4.4 2.5c-.7-.4-1.5-.6-2.4-.5 3.6 1.8 2.6 8-2.3 7.7a4.4 4.4 0 0 1-1.6-.4h-.2l-.1-.1h.1a4.2 4.2 0 0 1-2.3-3.2s.4-1.7 3.3-1.7c.3 0 1.1-.9 1.2-1.1 0-.1-1.8-.8-2.5-1.5L9 8.6l-.3-.2c-.2-.8-.2-1.6 0-2.4-1 .4-1.8 1-2.4 1.8-.4-.5-.4-2.1-.4-2.5l-.3.2a7.2 7.2 0 0 0-1.9 2c-.6.8-1 1.9-1.3 3l-.2.6-.1 1.4a10 10 0 0 0 19.7 1.8v-.4c.3-1.7 0-3.4-.6-5Z" fill="url(#g)"/><defs><radialGradient id="b" cx="0" cy="0" r="1" gradientUnits="userSpaceOnUse" gradientTransform="translate(11.2 3.4) scale(7.09641)"><stop stop-color="#FFE226"/><stop offset=".1" stop-color="#FFDB27"/><stop offset=".3" stop-color="#FFC82A"/><stop offset=".5" stop-color="#FFA930"/><stop offset=".7" stop-color="#FF7E37"/><stop offset=".8" stop-color="#FF7139"/></radialGradient><radialGradient id="c" cx="0" cy="0" r="1" gradientUnits="userSpaceOnUse" gradientTransform="matrix(30.2773 0 0 30.2771 14.6 -1)"><stop offset=".1" stop-color="#FFF44F"/><stop offset=".5" stop-color="#FF980E"/><stop offset=".6" stop-color="#FF5634"/><stop offset=".7" stop-color="#FF3647"/><stop offset=".9" stop-color="#E31587"/></radialGradient><radialGradient id="d" cx="0" cy="0" r="1" gradientUnits="userSpaceOnUse" gradientTransform="matrix(2.32884 10.45005 -44.89283 10.00455 4.6 7.6)"><stop stop-color="#FFF44F"/><stop offset=".1" stop-color="#FFE847"/><stop offset=".2" stop-color="#FFC830"/><stop offset=".3" stop-color="#FF980E"/><stop offset=".4" stop-color="#FF8B16"/><stop offset=".5" stop-color="#FF672A"/><stop offset=".6" stop-color="#FF3647"/><stop offset=".7" stop-color="#E31587"/></radialGradient><radialGradient id="e" cx="0" cy="0" r="1" gradientUnits="userSpaceOnUse" gradientTransform="matrix(18.9027 0 0 18.9026 10.9 6)"><stop offset=".1" stop-color="#FFF44F"/><stop offset=".5" stop-color="#FF980E"/><stop offset=".6" stop-color="#FF5634"/><stop offset=".7" stop-color="#FF3647"/><stop offset=".9" stop-color="#E31587"/></radialGradient><radialGradient id="f" cx="0" cy="0" r="1" gradientUnits="userSpaceOnUse" gradientTransform="translate(14.7 7.2) scale(20.6887)"><stop offset=".1" stop-color="#FFF44F"/><stop offset=".2" stop-color="#FFE141"/><stop offset=".5" stop-color="#FFAF1E"/><stop offset=".6" stop-color="#FF980E"/></radialGradient><linearGradient id="a" x1="19.3" y1="5.2" x2="3.4" y2="20.6" gradientUnits="userSpaceOnUse"><stop offset="0" stop-color="#FFF44F"/><stop offset=".1" stop-color="#FFE847"/><stop offset=".2" stop-color="#FFC830"/><stop offset=".4" stop-color="#FF980E"/><stop offset=".4" stop-color="#FF8B16"/><stop offset=".5" stop-color="#FF672A"/><stop offset=".5" stop-color="#FF3647"/><stop offset=".7" stop-color="#E31587"/></linearGradient><linearGradient id="g" x1="19.1" y1="5.1" x2="5.5" y2="18.7" gradientUnits="userSpaceOnUse"><stop offset=".2" stop-color="#FFF44F" stop-opacity=".8"/><stop offset=".3" stop-color="#FFF44F" stop-opacity=".6"/><stop offset=".5" stop-color="#FFF44F" stop-opacity=".2"/><stop offset=".6" stop-color="#FFF44F" stop-opacity="0"/></linearGradient></defs></svg>
