<svg viewBox="0 0 24 24" xmlns="http://www.w3.org/2000/svg">
<path d="M13.0809 15.6564L20.5248 10.2142C20.9324 9.91615 21.0212 9.34411 20.7232 8.93649C20.6677 8.86052 20.6007 8.79357 20.5248 8.73803L13.0809 3.29576C12.4381 2.82585 11.5652 2.82585 10.9225 3.29576L3.47859 8.73803C3.07097 9.03605 2.98212 9.60808 3.28013 10.0157C3.33568 10.0917 3.40262 10.1586 3.47859 10.2142L10.9225 15.6564C11.5652 16.1263 12.4381 16.1263 13.0809 15.6564ZM11.4618 18.5803L4.72441 13.6631C4.40307 13.4286 3.96695 13.4288 3.64581 13.6636L3.32701 13.8967C2.98059 14.1499 2.90508 14.6361 3.15835 14.9825C3.20555 15.047 3.26244 15.1039 3.32701 15.1511L10.9225 20.7042C11.5652 21.1742 12.4381 21.1742 13.0809 20.7042L20.6705 15.1554C21.0196 14.9002 21.0957 14.4103 20.8405 14.0612C20.793 13.9964 20.7359 13.9392 20.671 13.8917L20.3479 13.655C20.0263 13.4195 19.5892 13.4195 19.2676 13.6549L12.5409 18.5795C12.2197 18.8147 11.7834 18.815 11.4618 18.5803Z"/>
</svg>
