<svg viewBox="0 0 24 24" xmlns="http://www.w3.org/2000/svg"><path fill-rule="evenodd" clip-rule="evenodd" d="M7 4.75A2.25 2.25 0 0 0 4.75 7a.75.75 0 0 1-1.5 0A3.75 3.75 0 0 1 7 3.25h9A4.75 4.75 0 0 1 20.75 8v9A3.75 3.75 0 0 1 17 20.75a.75.75 0 0 1 0-1.5A2.25 2.25 0 0 0 19.25 17V8A3.25 3.25 0 0 0 16 4.75H7ZM3.25 10A.75.75 0 0 1 4 9.25c5.937 0 10.75 4.813 10.75 10.75a.75.75 0 0 1-1.5 0A9.25 9.25 0 0 0 4 10.75a.75.75 0 0 1-.75-.75Zm0 4a.75.75 0 0 1 .75-.75A6.75 6.75 0 0 1 10.75 20a.75.75 0 0 1-1.5 0c0-2.9-2.35-5.25-5.25-5.25a.75.75 0 0 1-.75-.75Zm0 4a.75.75 0 0 1 .75-.75A2.75 2.75 0 0 1 6.75 20a.75.75 0 0 1-1.5 0c0-.69-.56-1.25-1.25-1.25a.75.75 0 0 1-.75-.75Z"/></svg>
