<svg viewBox="0 0 24 24" xmlns="http://www.w3.org/2000/svg"><path d="M6.375 3H16.5A4.5 4.5 0 0 1 21 7.5v10.125A3.375 3.375 0 0 1 17.625 21v-1.625c0-7.18-5.82-13-13-13H3A3.375 3.375 0 0 1 6.375 3Z"/><path d="M4 9.25a.75.75 0 0 0 0 1.5A9.25 9.25 0 0 1 13.25 20a.75.75 0 0 0 1.5 0C14.75 14.063 9.937 9.25 4 9.25Z"/><path d="M4 13.25a.75.75 0 0 0 0 1.5c2.9 0 5.25 2.35 5.25 5.25a.75.75 0 0 0 1.5 0A6.75 6.75 0 0 0 4 13.25Zm0 4a.75.75 0 0 0 0 1.5c.69 0 1.25.56 1.25 1.25a.75.75 0 0 0 1.5 0A2.75 2.75 0 0 0 4 17.25Z"/></svg>
