<svg viewBox="0 0 24 24" fill="none" xmlns="http://www.w3.org/2000/svg">
<path fill-rule="evenodd" clip-rule="evenodd" d="M12 1C5.92617 1 1 5.92433 1 12C1 18.0748 5.92617 23 12 23C18.0748 23 23 18.0748 23 12C23 5.92433 18.0748 1 12 1ZM17.0811 16.0233C17.896 15.4329 18.4167 14.5593 18.4167 13.5886C18.4167 11.8103 16.686 10.3674 14.5511 10.3674C12.4162 10.3674 10.6855 11.8103 10.6855 13.5886C10.6855 15.3678 12.4162 16.8098 14.5511 16.8098C14.992 16.8098 15.4183 16.7474 15.8133 16.6338L15.927 16.6163C16.0013 16.6163 16.0682 16.6393 16.1323 16.6759L16.9784 17.1645L17.0527 17.1883C17.1242 17.1883 17.181 17.1306 17.181 17.06L17.1608 16.9656L16.9867 16.3157L16.9729 16.2332C16.9729 16.147 17.016 16.07 17.0811 16.0233V16.0233ZM10.2217 6.81167C7.6605 6.81167 5.58333 8.54233 5.58333 10.6773C5.58333 11.8414 6.2085 12.8901 7.18567 13.5987C7.2645 13.6546 7.31583 13.7463 7.31583 13.8508L7.29933 13.9488L7.09033 14.7289L7.06558 14.8417C7.06558 14.9269 7.13525 14.9966 7.2205 14.9966L7.30942 14.9673L8.32508 14.3815C8.40117 14.3375 8.48275 14.31 8.57167 14.31L8.70825 14.3302C9.18125 14.4668 9.69275 14.5419 10.2217 14.5419L10.4765 14.5364C10.3757 14.2348 10.3207 13.9177 10.3207 13.5886C10.3207 11.6425 12.2145 10.064 14.5511 10.064L14.8032 10.0704C14.4539 8.22333 12.5363 6.81167 10.2217 6.81167V6.81167ZM13.2623 13.0734C12.9781 13.0734 12.7471 12.8424 12.7471 12.5583C12.7471 12.2732 12.9781 12.0431 13.2623 12.0431C13.5473 12.0431 13.7783 12.2732 13.7783 12.5583C13.7783 12.8424 13.5473 13.0734 13.2623 13.0734ZM15.8399 13.0734C15.5548 13.0734 15.3248 12.8424 15.3248 12.5583C15.3248 12.2732 15.5548 12.0431 15.8399 12.0431C16.1241 12.0431 16.3551 12.2732 16.3551 12.5583C16.3551 12.8424 16.1241 13.0734 15.8399 13.0734ZM8.67617 10.0585C8.33425 10.0585 8.05742 9.78167 8.05742 9.43975C8.05742 9.09875 8.33425 8.82192 8.67617 8.82192C9.01717 8.82192 9.294 9.09875 9.294 9.43975C9.294 9.78167 9.01717 10.0585 8.67617 10.0585ZM11.7681 10.0585C11.4262 10.0585 11.1493 9.78167 11.1493 9.43975C11.1493 9.09875 11.4262 8.82192 11.7681 8.82192C12.11 8.82192 12.3868 9.09875 12.3868 9.43975C12.3868 9.78167 12.11 10.0585 11.7681 10.0585Z" fill="#7BB32E"/>
</svg>
